<?xml version="1.0" encoding="utf-8"?>
<svg id="abe9a4ff-27f3-4ae0-80d1-3256bfad5e8d" data-name="Layer 1" width="844.6693" height="576" viewBox="0 0 844.6693 576" xmlns="http://www.w3.org/2000/svg">
  <g id="Illustration" style="" transform="matrix(0.247553, 0, 0, 0.247553, -11.263171, -224.903961)">
    <g>
      <rect x="1908.7" y="1074" class="st0" width="163.5" height="805.3" style="fill: rgb(206, 230, 247);"/>
      <rect x="2089.9" y="1074" class="st1" width="619.5" height="797.6" style="fill: rgb(133, 193, 236);"/>
      <g>
        <rect x="2018.6" y="2911.9" class="st2" width="46.3" height="181" style="fill: rgb(108, 213, 218);"/>
      </g>
      <g>
        <rect x="2045.1" y="3092.9" class="st3" width="17.8" height="43.9" style="fill: rgb(151, 151, 151);"/>
        <polygon class="st4" points="2077.4,3158.8 2030.6,3158.8 2045.1,3136.8 2062.9,3136.8 &#9;&#9;&#9;" style="fill: rgb(201, 201, 201);"/>
        <rect x="2045.1" y="3092.9" class="st5" width="17.8" height="16.6" style="fill: rgb(168, 168, 168); opacity: 0.5;"/>
      </g>
      <rect x="2064.9" y="1019.9" class="st6" width="25.1" height="2073" style="fill: rgb(161, 228, 231);"/>
      <rect x="2018.6" y="2958.2" class="st5" width="71.4" height="29.5" style="fill: rgb(168, 168, 168); opacity: 0.5;"/>
      <rect x="1883.6" y="1019.9" class="st6" width="25.1" height="2073" style="fill: rgb(161, 228, 231);"/>
      <g>
        <rect x="2898.4" y="2911.9" class="st2" width="46.3" height="181" style="fill: rgb(108, 213, 218);"/>
      </g>
      <g>
        <rect x="1883.6" y="1933.2" class="st7" width="833.6" height="978.7" style="fill: rgb(195, 226, 225);"/>
      </g>
      <g>
        <path class="st2" d="M1837.3,1019.9v1938.3h926.2V1019.9H1837.3z M2717.2,2911.9h-833.6V1066.2h833.6V2911.9z" style="fill: rgb(108, 213, 218);"/>
      </g>
      <g>
        <rect x="1837.3" y="2911.9" class="st2" width="46.3" height="181" style="fill: rgb(108, 213, 218);"/>
      </g>
      <g>
        <rect x="2717.2" y="2911.9" class="st2" width="46.3" height="181" style="fill: rgb(108, 213, 218);"/>
      </g>
      <g>
        <rect x="2831.1" y="2844.6" transform="matrix(6.123234e-17 -1 1 6.123234e-17 -80.832 5789.3203)" class="st6" width="46.3" height="181" style="fill: rgb(161, 228, 231);"/>
      </g>
      <g>
        <path class="st8" d="M2709.5,1933.2v971h-818.1v-971H2709.5L2709.5,1933.2z M2717.2,1925.5h-833.6v986.4h833.6V1925.5 L2717.2,1925.5z" style="fill: rgb(0, 57, 72);"/>
      </g>
      <g>
        <rect x="2296.6" y="1925.5" class="st8" width="7.7" height="983.3" style="fill: rgb(0, 57, 72);"/>
      </g>
      <g>
        <g class="st9" style="opacity: 0.5;">
          <polygon class="st10" points="2234.6,2102.4 2234.9,2102.4 2235.2,2102.4 2238.7,2102.4 2238.7,2093 2235.2,2093 2234.9,2093 &#10;&#9;&#9;&#9;&#9;&#9;2231.4,2093 2224.7,2102.4 2224.7,2222.9 2226.1,2224.8 2226.1,2224.9 2226.1,2224.9 2231.4,2232.3 2234.9,2232.3 &#10;&#9;&#9;&#9;&#9;&#9;2235.2,2232.3 2238.7,2232.3 2238.7,2222.9 2235.2,2222.9 2234.9,2222.9 2234.8,2222.9 2232.4,2219.5 2232.4,2106.2 &#9;&#9;&#9;&#9;" style="fill: rgb(168, 168, 168);"/>
        </g>
        <g>
          <g>
            <polygon class="st11" points="2233.2,2106.2 2235.3,2102.4 2235.7,2102.4 2239.5,2102.4 2239.5,2093 2235.7,2093 2229,2102.4 &#10;&#9;&#9;&#9;&#9;&#9;&#9;2229,2222.9 2230.4,2224.8 2230.4,2224.9 2230.4,2224.9 2235.7,2232.3 2239.5,2232.3 2239.5,2222.9 2235.7,2222.9 &#10;&#9;&#9;&#9;&#9;&#9;&#9;2235.6,2222.9 2233.2,2219.5 &#9;&#9;&#9;&#9;&#9;" style="fill: rgb(56, 56, 56);"/>
          </g>
          <g>
            <polygon class="st12" points="2236.7,2106.2 2238.9,2102.4 2239.2,2102.4 2243,2102.4 2243,2093 2239.2,2093 2232.6,2102.4 &#10;&#9;&#9;&#9;&#9;&#9;&#9;2232.6,2222.9 2233.9,2224.8 2233.9,2224.9 2234,2224.9 2239.2,2232.3 2243,2232.3 2243,2222.9 2239.2,2222.9 2239.2,2222.9 &#10;&#9;&#9;&#9;&#9;&#9;&#9;2236.7,2219.5 &#9;&#9;&#9;&#9;&#9;" style="fill: rgb(84, 84, 84);"/>
          </g>
        </g>
      </g>
      <g>
        <g class="st9" style="opacity: 0.5;">
          <polygon class="st10" points="2361.3,2102.4 2361.6,2102.4 2361.9,2102.4 2365.4,2102.4 2365.4,2093 2361.9,2093 2361.6,2093 &#10;&#9;&#9;&#9;&#9;&#9;2358.1,2093 2351.4,2102.4 2351.4,2222.9 2352.8,2224.8 2352.8,2224.9 2352.8,2224.9 2358.1,2232.3 2361.6,2232.3 &#10;&#9;&#9;&#9;&#9;&#9;2361.9,2232.3 2365.4,2232.3 2365.4,2222.9 2361.9,2222.9 2361.6,2222.9 2361.5,2222.9 2359.1,2219.5 2359.1,2106.2 &#9;&#9;&#9;&#9;" style="fill: rgb(168, 168, 168);"/>
        </g>
        <g>
          <g>
            <polygon class="st11" points="2359.9,2106.2 2362,2102.4 2362.4,2102.4 2366.2,2102.4 2366.2,2093 2362.4,2093 2355.7,2102.4 &#10;&#9;&#9;&#9;&#9;&#9;&#9;2355.7,2222.9 2357.1,2224.8 2357.1,2224.9 2357.1,2224.9 2362.4,2232.3 2366.2,2232.3 2366.2,2222.9 2362.4,2222.9 &#10;&#9;&#9;&#9;&#9;&#9;&#9;2362.3,2222.9 2359.9,2219.5 &#9;&#9;&#9;&#9;&#9;" style="fill: rgb(56, 56, 56);"/>
          </g>
          <g>
            <polygon class="st12" points="2363.5,2106.2 2365.6,2102.4 2365.9,2102.4 2369.7,2102.4 2369.7,2093 2365.9,2093 &#10;&#9;&#9;&#9;&#9;&#9;&#9;2359.3,2102.4 2359.3,2222.9 2360.6,2224.8 2360.6,2224.9 2360.7,2224.9 2365.9,2232.3 2369.7,2232.3 2369.7,2222.9 &#10;&#9;&#9;&#9;&#9;&#9;&#9;2365.9,2222.9 2365.9,2222.9 2363.5,2219.5 &#9;&#9;&#9;&#9;&#9;" style="fill: rgb(84, 84, 84);"/>
          </g>
        </g>
      </g>
      <g>
        <rect x="2296.6" y="1072.7" class="st2" width="7.7" height="806.6" style="fill: rgb(108, 213, 218);"/>
      </g>
      <g>
        <rect x="1883.6" y="1620.3" class="st13" width="833.6" height="7.7" style="fill: rgb(18, 112, 116);"/>
      </g>
      <g>
        <rect x="1883.6" y="1323.8" class="st13" width="833.6" height="7.7" style="fill: rgb(18, 112, 116);"/>
      </g>
      <g>
        <path class="st8" d="M2709.5,1074v797.6h-818.1V1074H2709.5L2709.5,1074z M2717.2,1066.2h-833.6v813h833.6V1066.2L2717.2,1066.2z " style="fill: rgb(0, 57, 72);"/>
      </g>
      <g>
        <rect x="1863.9" y="3092.9" class="st3" width="17.8" height="43.9" style="fill: rgb(151, 151, 151);"/>
        <polygon class="st4" points="1896.2,3158.8 1849.4,3158.8 1863.9,3136.8 1881.7,3136.8 &#9;&#9;&#9;" style="fill: rgb(201, 201, 201);"/>
        <rect x="1863.9" y="3092.9" class="st5" width="17.8" height="16.6" style="fill: rgb(168, 168, 168); opacity: 0.5;"/>
      </g>
      <g>
        <rect x="2744.4" y="3092.9" class="st3" width="17.8" height="43.9" style="fill: rgb(151, 151, 151);"/>
        <polygon class="st4" points="2776.7,3158.8 2729.9,3158.8 2744.4,3136.8 2762.2,3136.8 &#9;&#9;&#9;" style="fill: rgb(201, 201, 201);"/>
        <rect x="2744.4" y="3092.9" class="st5" width="17.8" height="16.6" style="fill: rgb(168, 168, 168); opacity: 0.5;"/>
      </g>
      <g>
        <rect x="2925" y="3092.9" class="st3" width="17.8" height="43.9" style="fill: rgb(151, 151, 151);"/>
        <polygon class="st4" points="2957.3,3158.8 2910.5,3158.8 2925,3136.8 2942.8,3136.8 &#9;&#9;&#9;" style="fill: rgb(201, 201, 201);"/>
        <rect x="2925" y="3092.9" class="st5" width="17.8" height="16.6" style="fill: rgb(168, 168, 168); opacity: 0.5;"/>
      </g>
      <rect x="1837.3" y="1879.2" class="st2" width="879.9" height="46.3" style="fill: rgb(108, 213, 218);"/>
      <rect x="2786.1" y="1879.2" class="st6" width="166.9" height="46.3" style="fill: rgb(161, 228, 231);"/>
      <rect x="2786.1" y="1019.9" class="st6" width="166.9" height="46.3" style="fill: rgb(161, 228, 231);"/>
      <rect x="2763.5" y="1019.9" class="st6" width="25.1" height="2073" style="fill: rgb(161, 228, 231);"/>
      <rect x="2944.7" y="1019.9" class="st6" width="25.1" height="2073" style="fill: rgb(161, 228, 231);"/>
      <rect x="2898.4" y="2958.2" class="st5" width="71.4" height="29.5" style="fill: rgb(168, 168, 168); opacity: 0.5;"/>
      <rect x="1883.6" y="1925.5" class="st8" width="833.6" height="7.7" style="fill: rgb(0, 57, 72);"/>
      <rect x="2788.6" y="1925.5" class="st14" width="156.1" height="986.4" style="fill: rgb(233, 245, 244);"/>
      <g>
        <rect x="2790" y="1070.1" class="st15" width="150.9" height="805.3" style="fill: rgb(206, 230, 248);"/>
        <path class="st8" d="M2786.1,1066.2v813h158.6v-813H2786.1z M2940.9,1875.4H2790v-805.3h150.9V1875.4z" style="fill: rgb(0, 57, 72);"/>
      </g>
      <rect x="2922.5" y="1070.1" class="st2" width="18.4" height="805.3" style="fill: rgb(108, 213, 218);"/>
      <rect x="2790" y="1323.8" class="st16" width="150.9" height="7.7" style="fill: rgb(113, 169, 172);"/>
      <rect x="2790" y="1620.3" class="st16" width="150.9" height="7.7" style="fill: rgb(113, 169, 172);"/>
      <rect x="2786.1" y="1066.2" class="st17" width="158.6" height="813" style="fill: rgb(206, 230, 248); opacity: 0.5;"/>
      <g class="st18" style="opacity: 0.38;">
        <polygon class="st19" points="2076.2,1074 1891.1,1259.1 1891.1,1413.5 2230.6,1074 &#9;&#9;&#9;" style="fill: rgb(255, 255, 255);"/>
        <polygon class="st20" points="1891.1,1074 1891.1,1259.1 2076.2,1074 &#9;&#9;&#9;" style="fill: rgb(224, 224, 224);"/>
        <polygon class="st21" points="2230.6,1074 1891.1,1413.5 1891.1,1525.6 1891.3,1783.8 2601.9,1074 &#9;&#9;&#9;" style="fill: rgb(191, 191, 191);"/>
        <polygon class="st2" points="2709.3,1416.2 2253.6,1871.9 2709.5,1871.5 &#9;&#9;&#9;" style="fill: rgb(108, 213, 218);"/>
        <polygon class="st19" points="2709.5,1074 2639.6,1074 1891.4,1821.4 1891.1,1871.9 2253.6,1871.9 2709.3,1416.2 &#9;&#9;&#9;" style="fill: rgb(255, 255, 255);"/>
        <polygon class="st20" points="2601.9,1074 1891.3,1783.8 1891.4,1821.4 2639.6,1074 &#9;&#9;&#9;" style="fill: rgb(224, 224, 224);"/>
      </g>
      <g>
        <g>
          <g class="st9" style="opacity: 0.5;">
            <polygon class="st10" points="2234.6,1687.5 2234.9,1687.5 2235.2,1687.5 2238.7,1687.5 2238.7,1678.1 2235.2,1678.1 &#10;&#9;&#9;&#9;&#9;&#9;&#9;2234.9,1678.1 2231.4,1678.1 2224.7,1687.5 2224.7,1808 2226.1,1810 2226.1,1810 2226.1,1810 2231.4,1817.4 2234.9,1817.4 &#10;&#9;&#9;&#9;&#9;&#9;&#9;2235.2,1817.4 2238.7,1817.4 2238.7,1808 2235.2,1808 2234.9,1808 2234.8,1808 2232.4,1804.6 2232.4,1691.4 &#9;&#9;&#9;&#9;&#9;" style="fill: rgb(168, 168, 168);"/>
          </g>
          <g>
            <g>
              <polygon class="st11" points="2233.2,1691.4 2235.3,1687.5 2235.7,1687.5 2239.5,1687.5 2239.5,1678.1 2235.7,1678.1 &#10;&#9;&#9;&#9;&#9;&#9;&#9;&#9;2229,1687.5 2229,1808 2230.4,1810 2230.4,1810 2230.4,1810 2235.7,1817.4 2239.5,1817.4 2239.5,1808 2235.7,1808 &#10;&#9;&#9;&#9;&#9;&#9;&#9;&#9;2235.6,1808 2233.2,1804.6 &#9;&#9;&#9;&#9;&#9;&#9;" style="fill: rgb(56, 56, 56);"/>
            </g>
            <g>
              <polygon class="st12" points="2236.7,1691.4 2238.9,1687.5 2239.2,1687.5 2243,1687.5 2243,1678.1 2239.2,1678.1 &#10;&#9;&#9;&#9;&#9;&#9;&#9;&#9;2232.6,1687.5 2232.6,1808 2233.9,1810 2233.9,1810 2234,1810 2239.2,1817.4 2243,1817.4 2243,1808 2239.2,1808 2239.2,1808 &#10;&#9;&#9;&#9;&#9;&#9;&#9;&#9;2236.7,1804.6 &#9;&#9;&#9;&#9;&#9;&#9;" style="fill: rgb(84, 84, 84);"/>
            </g>
          </g>
        </g>
        <g>
          <g class="st9" style="opacity: 0.5;">
            <polygon class="st10" points="2361.3,1687.5 2361.6,1687.5 2361.9,1687.5 2365.4,1687.5 2365.4,1678.1 2361.9,1678.1 &#10;&#9;&#9;&#9;&#9;&#9;&#9;2361.6,1678.1 2358.1,1678.1 2351.4,1687.5 2351.4,1808 2352.8,1810 2352.8,1810 2352.8,1810 2358.1,1817.4 2361.6,1817.4 &#10;&#9;&#9;&#9;&#9;&#9;&#9;2361.9,1817.4 2365.4,1817.4 2365.4,1808 2361.9,1808 2361.6,1808 2361.5,1808 2359.1,1804.6 2359.1,1691.4 &#9;&#9;&#9;&#9;&#9;" style="fill: rgb(168, 168, 168);"/>
          </g>
          <g>
            <g>
              <polygon class="st11" points="2359.9,1691.4 2362,1687.5 2362.4,1687.5 2366.2,1687.5 2366.2,1678.1 2362.4,1678.1 &#10;&#9;&#9;&#9;&#9;&#9;&#9;&#9;2355.7,1687.5 2355.7,1808 2357.1,1810 2357.1,1810 2357.1,1810 2362.4,1817.4 2366.2,1817.4 2366.2,1808 2362.4,1808 &#10;&#9;&#9;&#9;&#9;&#9;&#9;&#9;2362.3,1808 2359.9,1804.6 &#9;&#9;&#9;&#9;&#9;&#9;" style="fill: rgb(56, 56, 56);"/>
            </g>
            <g>
              <polygon class="st12" points="2363.5,1691.4 2365.6,1687.5 2365.9,1687.5 2369.7,1687.5 2369.7,1678.1 2365.9,1678.1 &#10;&#9;&#9;&#9;&#9;&#9;&#9;&#9;2359.3,1687.5 2359.3,1808 2360.6,1810 2360.6,1810 2360.7,1810 2365.9,1817.4 2369.7,1817.4 2369.7,1808 2365.9,1808 &#10;&#9;&#9;&#9;&#9;&#9;&#9;&#9;2365.9,1808 2363.5,1804.6 &#9;&#9;&#9;&#9;&#9;&#9;" style="fill: rgb(84, 84, 84);"/>
            </g>
          </g>
        </g>
      </g>
      <rect x="2931.7" y="1925.5" class="st2" width="13.1" height="986.4" style="fill: rgb(108, 213, 218);"/>
    </g>
    <g>
      <rect x="1025.2" y="2297.6" class="st22" width="153.5" height="805.7" style="fill: rgb(139, 139, 139);"/>
      <rect x="1178.7" y="2297.6" class="st23" width="31.8" height="805.7" style="fill: rgb(162, 162, 162);"/>
      <rect x="617.9" y="2599.4" class="st24" width="987.2" height="437.8" style="fill: rgb(185, 185, 185);"/>
      <g>
        <rect x="753" y="2094" class="st25" width="697.9" height="431.3" style="fill: rgb(196, 238, 240);"/>
        <path class="st11" d="M719.2,2060.2v498.9h765.5v-498.9H719.2z M1450.9,2525.3H753V2094h697.9V2525.3z" style="fill: rgb(56, 56, 56);"/>
      </g>
      <rect x="753" y="2094" class="st26" width="16.3" height="431.3" style="fill: rgb(96, 96, 96);"/>
      <rect x="1484.7" y="2060.2" class="st26" width="16.3" height="498.9" style="fill: rgb(96, 96, 96);"/>
      <rect x="1025.2" y="2559.1" class="st5" width="185.4" height="19.1" style="fill: rgb(168, 168, 168); opacity: 0.5;"/>
      <rect x="1025.2" y="3037.2" class="st5" width="185.4" height="19.1" style="fill: rgb(168, 168, 168); opacity: 0.5;"/>
      <rect x="463.7" y="2811.2" transform="matrix(-1.836970e-16 1 -1 -1.836970e-16 3480.3176 2161.1033)" class="st5" width="391.9" height="19.1" style="fill: rgb(168, 168, 168); opacity: 0.5;"/>
      <rect x="669.2" y="2997.3" class="st5" width="896.9" height="19.1" style="fill: rgb(168, 168, 168); opacity: 0.5;"/>
      <g>
        <rect x="669.2" y="2624.8" class="st11" width="880.6" height="372.6" style="fill: rgb(56, 56, 56);"/>
        <rect x="1549.7" y="2624.8" class="st26" width="16.3" height="372.6" style="fill: rgb(96, 96, 96);"/>
        <rect x="692.5" y="2684.1" class="st27" width="830.2" height="292.7" style="fill: rgb(14, 14, 14);"/>
        <g>
          <g>
            <polygon class="st28" points="1338.7,2914.4 1310.7,2914.4 1306.7,2914.4 1306.7,2976.8 1310.7,2976.8 1338.7,2976.8 &#10;&#9;&#9;&#9;&#9;&#9;&#9;1363.9,2976.8 1369.1,2976.8 1369.1,2914.4 1363.9,2914.4 &#9;&#9;&#9;&#9;&#9;" style="fill: rgb(112, 112, 112);"/>
            <polygon class="st28" points="1460.2,2914.4 1460.2,2976.8 1522.7,2976.8 1522.7,2963.7 1522.7,2914.4 1473.4,2914.4 &#9;&#9;&#9;&#9;&#9;" style="fill: rgb(112, 112, 112);"/>
            <polygon class="st28" points="1383.5,2878 1383.5,2878.3 1383.5,2900 1394.6,2900 1433.9,2900 1445.9,2900 1445.9,2886.9 &#10;&#9;&#9;&#9;&#9;&#9;&#9;1445.9,2837.6 1383.5,2837.6 &#9;&#9;&#9;&#9;&#9;" style="fill: rgb(112, 112, 112);"/>
            <polygon class="st28" points="922.8,2900 932.9,2900 968.9,2900 985.3,2900 985.3,2837.6 922.8,2837.6 &#9;&#9;&#9;&#9;&#9;" style="fill: rgb(112, 112, 112);"/>
            <path class="st28" d="M1226.7,2914.4v62.4h28h25.3h12.4v-62.4h-12.4C1279.9,2914.4,1227.8,2914.4,1226.7,2914.4z" style="fill: rgb(112, 112, 112);"/>
            <polygon class="st28" points="1306.7,2885.6 1306.7,2900 1310.7,2900 1338.7,2900 1363.9,2900 1369.1,2900 1369.1,2858.6 &#10;&#9;&#9;&#9;&#9;&#9;&#9;1369.1,2837.6 1306.7,2837.6 &#9;&#9;&#9;&#9;&#9;" style="fill: rgb(112, 112, 112);"/>
            <polygon class="st28" points="846.1,2872.4 846.1,2900 848.9,2900 862.9,2900 902.2,2900 908.5,2900 908.5,2881.3 &#10;&#9;&#9;&#9;&#9;&#9;&#9;908.5,2837.6 846.1,2837.6 &#9;&#9;&#9;&#9;&#9;" style="fill: rgb(112, 112, 112);"/>
            <polygon class="st28" points="1394.6,2914.4 1383.5,2914.4 1383.5,2976.8 1394.6,2976.8 1433.9,2976.8 1445.9,2976.8 &#10;&#9;&#9;&#9;&#9;&#9;&#9;1445.9,2914.4 1433.9,2914.4 &#9;&#9;&#9;&#9;&#9;" style="fill: rgb(112, 112, 112);"/>
            <rect x="692.5" y="2684.1" class="st28" width="62.4" height="62.4" style="fill: rgb(112, 112, 112);"/>
            <rect x="769.3" y="2684.1" class="st28" width="62.4" height="62.4" style="fill: rgb(112, 112, 112);"/>
            <rect x="846.1" y="2684.1" class="st28" width="62.4" height="62.4" style="fill: rgb(112, 112, 112);"/>
            <rect x="922.8" y="2684.1" class="st28" width="62.4" height="62.4" style="fill: rgb(112, 112, 112);"/>
            <rect x="999.6" y="2684.1" class="st28" width="62.4" height="62.4" style="fill: rgb(112, 112, 112);"/>
            <rect x="1076.4" y="2684.1" class="st28" width="62.4" height="62.4" style="fill: rgb(112, 112, 112);"/>
            <rect x="1153.1" y="2684.1" class="st28" width="62.4" height="62.4" style="fill: rgb(112, 112, 112);"/>
            <rect x="1229.9" y="2684.1" class="st28" width="62.4" height="62.4" style="fill: rgb(112, 112, 112);"/>
            <rect x="1306.7" y="2684.1" class="st28" width="62.4" height="62.4" style="fill: rgb(112, 112, 112);"/>
            <rect x="1383.5" y="2684.1" class="st28" width="62.4" height="62.4" style="fill: rgb(112, 112, 112);"/>
            <rect x="1460.2" y="2684.1" class="st28" width="62.4" height="62.4" style="fill: rgb(112, 112, 112);"/>
            <rect x="692.5" y="2760.8" class="st28" width="62.4" height="62.4" style="fill: rgb(112, 112, 112);"/>
            <rect x="769.3" y="2760.8" class="st28" width="62.4" height="62.4" style="fill: rgb(112, 112, 112);"/>
            <rect x="846.1" y="2760.8" class="st28" width="62.4" height="62.4" style="fill: rgb(112, 112, 112);"/>
            <rect x="922.8" y="2760.8" class="st28" width="62.4" height="62.4" style="fill: rgb(112, 112, 112);"/>
            <rect x="999.6" y="2760.8" class="st28" width="62.4" height="62.4" style="fill: rgb(112, 112, 112);"/>
            <rect x="1076.4" y="2760.8" class="st28" width="62.4" height="62.4" style="fill: rgb(112, 112, 112);"/>
            <rect x="1153.1" y="2760.8" class="st28" width="62.4" height="62.4" style="fill: rgb(112, 112, 112);"/>
            <rect x="1229.9" y="2760.8" class="st28" width="62.4" height="62.4" style="fill: rgb(112, 112, 112);"/>
            <rect x="1306.7" y="2760.8" class="st28" width="62.4" height="62.4" style="fill: rgb(112, 112, 112);"/>
            <rect x="1383.5" y="2760.8" class="st28" width="62.4" height="62.4" style="fill: rgb(112, 112, 112);"/>
            <rect x="1460.2" y="2760.8" class="st28" width="62.4" height="139.2" style="fill: rgb(112, 112, 112);"/>
            <polygon class="st28" points="692.5,2900 767.1,2900 778.9,2900 806.9,2900 831.7,2900 831.7,2888.9 831.7,2837.6 &#10;&#9;&#9;&#9;&#9;&#9;&#9;692.5,2837.6 &#9;&#9;&#9;&#9;&#9;" style="fill: rgb(112, 112, 112);"/>
            <rect x="999.6" y="2837.6" class="st28" width="62.4" height="62.4" style="fill: rgb(112, 112, 112);"/>
            <rect x="1076.4" y="2837.6" class="st28" width="62.4" height="62.4" style="fill: rgb(112, 112, 112);"/>
            <rect x="1153.1" y="2837.6" class="st28" width="62.4" height="62.4" style="fill: rgb(112, 112, 112);"/>
            <rect x="692.5" y="2914.4" class="st28" width="62.4" height="62.4" style="fill: rgb(112, 112, 112);"/>
            <rect x="1153.1" y="2914.4" class="st28" width="62.4" height="62.4" style="fill: rgb(112, 112, 112);"/>
            <polygon class="st28" points="778.9,2914.4 769.3,2914.4 769.3,2976.8 778.9,2976.8 806.9,2976.8 831.7,2976.8 831.7,2914.4 &#10;&#9;&#9;&#9;&#9;&#9;&#9;806.9,2914.4 &#9;&#9;&#9;&#9;&#9;" style="fill: rgb(112, 112, 112);"/>
            <polygon class="st28" points="862.9,2914.4 848.9,2914.4 846.1,2914.4 846.1,2976.8 848.9,2976.8 862.9,2976.8 902.2,2976.8 &#10;&#9;&#9;&#9;&#9;&#9;&#9;908.5,2976.8 908.5,2914.4 902.2,2914.4 &#9;&#9;&#9;&#9;&#9;" style="fill: rgb(112, 112, 112);"/>
            <polygon class="st28" points="974.9,2914.4 932.9,2914.4 922.8,2914.4 922.8,2976.8 932.9,2976.8 946.9,2976.8 974.9,2976.8 &#10;&#9;&#9;&#9;&#9;&#9;&#9;1034.4,2976.8 1138.8,2976.8 1138.8,2914.4 983.2,2914.4 &#9;&#9;&#9;&#9;&#9;" style="fill: rgb(112, 112, 112);"/>
            <polygon class="st28" points="1229.9,2900 1279.9,2900 1292.3,2900 1292.3,2855.6 1292.3,2837.6 1229.9,2837.6 &#9;&#9;&#9;&#9;&#9;" style="fill: rgb(112, 112, 112);"/>
          </g>
        </g>
        <rect x="1512.6" y="2684.1" class="st29" width="10.1" height="62.4" style="fill: rgb(164, 164, 164);"/>
        <rect x="1512.6" y="2914.4" class="st29" width="10.1" height="62.4" style="fill: rgb(164, 164, 164);"/>
        <rect x="1435.8" y="2684.1" class="st29" width="10.1" height="62.4" style="fill: rgb(164, 164, 164);"/>
        <rect x="1435.8" y="2914.4" class="st29" width="10.1" height="62.4" style="fill: rgb(164, 164, 164);"/>
        <rect x="1435.8" y="2837.6" class="st29" width="10.1" height="62.4" style="fill: rgb(164, 164, 164);"/>
        <rect x="1435.8" y="2760.8" class="st29" width="10.1" height="62.4" style="fill: rgb(164, 164, 164);"/>
        <rect x="1359.1" y="2684.1" class="st29" width="10.1" height="62.4" style="fill: rgb(164, 164, 164);"/>
        <rect x="1359.1" y="2914.4" class="st29" width="10.1" height="62.4" style="fill: rgb(164, 164, 164);"/>
        <rect x="1359.1" y="2837.6" class="st29" width="10.1" height="62.4" style="fill: rgb(164, 164, 164);"/>
        <rect x="1359.1" y="2760.8" class="st29" width="10.1" height="62.4" style="fill: rgb(164, 164, 164);"/>
        <rect x="1282.3" y="2684.1" class="st29" width="10.1" height="62.4" style="fill: rgb(164, 164, 164);"/>
        <rect x="1282.3" y="2914.4" class="st29" width="10.1" height="62.4" style="fill: rgb(164, 164, 164);"/>
        <rect x="1282.3" y="2837.6" class="st29" width="10.1" height="62.4" style="fill: rgb(164, 164, 164);"/>
        <rect x="1282.3" y="2760.8" class="st29" width="10.1" height="62.4" style="fill: rgb(164, 164, 164);"/>
        <rect x="1205.5" y="2684.1" class="st29" width="10.1" height="62.4" style="fill: rgb(164, 164, 164);"/>
        <rect x="1205.5" y="2914.4" class="st29" width="10.1" height="62.4" style="fill: rgb(164, 164, 164);"/>
        <rect x="1205.5" y="2837.6" class="st29" width="10.1" height="62.4" style="fill: rgb(164, 164, 164);"/>
        <rect x="1205.5" y="2760.8" class="st29" width="10.1" height="62.4" style="fill: rgb(164, 164, 164);"/>
        <rect x="1128.8" y="2684.1" class="st29" width="10.1" height="62.4" style="fill: rgb(164, 164, 164);"/>
        <rect x="1128.8" y="2914.4" class="st29" width="10.1" height="62.4" style="fill: rgb(164, 164, 164);"/>
        <rect x="1128.8" y="2837.6" class="st29" width="10.1" height="62.4" style="fill: rgb(164, 164, 164);"/>
        <rect x="1128.8" y="2760.8" class="st29" width="10.1" height="62.4" style="fill: rgb(164, 164, 164);"/>
        <rect x="1052" y="2684.1" class="st29" width="10.1" height="62.4" style="fill: rgb(164, 164, 164);"/>
        <rect x="1052" y="2837.6" class="st29" width="10.1" height="62.4" style="fill: rgb(164, 164, 164);"/>
        <rect x="1052" y="2760.8" class="st29" width="10.1" height="62.4" style="fill: rgb(164, 164, 164);"/>
        <rect x="975.2" y="2684.1" class="st29" width="10" height="62.4" style="fill: rgb(164, 164, 164);"/>
        <rect x="975.2" y="2837.6" class="st29" width="10" height="62.4" style="fill: rgb(164, 164, 164);"/>
        <rect x="975.2" y="2760.8" class="st29" width="10" height="62.4" style="fill: rgb(164, 164, 164);"/>
        <rect x="744.9" y="2684.1" class="st29" width="10" height="62.4" style="fill: rgb(164, 164, 164);"/>
        <rect x="744.9" y="2914.4" class="st29" width="10" height="62.4" style="fill: rgb(164, 164, 164);"/>
        <rect x="744.9" y="2760.8" class="st29" width="10" height="62.4" style="fill: rgb(164, 164, 164);"/>
        <rect x="898.4" y="2684.1" class="st29" width="10" height="62.4" style="fill: rgb(164, 164, 164);"/>
        <rect x="898.4" y="2914.4" class="st29" width="10" height="62.4" style="fill: rgb(164, 164, 164);"/>
        <rect x="898.4" y="2837.6" class="st29" width="10" height="62.4" style="fill: rgb(164, 164, 164);"/>
        <rect x="898.4" y="2760.8" class="st29" width="10" height="62.4" style="fill: rgb(164, 164, 164);"/>
        <rect x="821.7" y="2684.1" class="st29" width="10" height="62.4" style="fill: rgb(164, 164, 164);"/>
        <rect x="821.7" y="2914.4" class="st29" width="10" height="62.4" style="fill: rgb(164, 164, 164);"/>
        <rect x="821.7" y="2837.6" class="st29" width="10" height="62.4" style="fill: rgb(164, 164, 164);"/>
        <rect x="821.7" y="2760.8" class="st29" width="10" height="62.4" style="fill: rgb(164, 164, 164);"/>
        <rect x="1512.6" y="2760.8" class="st29" width="10.1" height="139.2" style="fill: rgb(164, 164, 164);"/>
        <rect x="769.3" y="2654.3" class="st28" width="62.4" height="9.4" style="fill: rgb(112, 112, 112);"/>
        <g>
          <rect x="698.9" y="2922" class="st29" width="25.8" height="3.9" style="fill: rgb(164, 164, 164);"/>
          <rect x="775.7" y="2922" class="st29" width="25.8" height="3.9" style="fill: rgb(164, 164, 164);"/>
          <rect x="852.5" y="2922" class="st29" width="25.8" height="3.9" style="fill: rgb(164, 164, 164);"/>
          <rect x="929.2" y="2922" class="st29" width="25.8" height="3.9" style="fill: rgb(164, 164, 164);"/>
          <rect x="1159.5" y="2922" class="st29" width="25.8" height="3.9" style="fill: rgb(164, 164, 164);"/>
          <rect x="1233.1" y="2922" class="st29" width="25.8" height="3.9" style="fill: rgb(164, 164, 164);"/>
          <rect x="1313.1" y="2922" class="st29" width="25.8" height="3.9" style="fill: rgb(164, 164, 164);"/>
          <rect x="1389.8" y="2922" class="st29" width="25.8" height="3.9" style="fill: rgb(164, 164, 164);"/>
          <rect x="1466.6" y="2922" class="st29" width="25.8" height="3.9" style="fill: rgb(164, 164, 164);"/>
        </g>
        <g>
          <rect x="698.9" y="2845.3" class="st29" width="25.8" height="3.9" style="fill: rgb(164, 164, 164);"/>
          <rect x="852.5" y="2845.3" class="st29" width="25.8" height="3.9" style="fill: rgb(164, 164, 164);"/>
          <rect x="929.2" y="2845.3" class="st29" width="25.8" height="3.9" style="fill: rgb(164, 164, 164);"/>
          <rect x="1159.5" y="2845.3" class="st29" width="25.8" height="3.9" style="fill: rgb(164, 164, 164);"/>
          <rect x="1233.1" y="2845.3" class="st29" width="25.8" height="3.9" style="fill: rgb(164, 164, 164);"/>
          <rect x="1313.1" y="2845.3" class="st29" width="25.8" height="3.9" style="fill: rgb(164, 164, 164);"/>
          <rect x="1389.8" y="2845.3" class="st29" width="25.8" height="3.9" style="fill: rgb(164, 164, 164);"/>
        </g>
        <g>
          <rect x="698.9" y="2768.5" class="st29" width="25.8" height="3.9" style="fill: rgb(164, 164, 164);"/>
          <rect x="775.7" y="2768.5" class="st29" width="25.8" height="3.9" style="fill: rgb(164, 164, 164);"/>
          <rect x="852.5" y="2768.5" class="st29" width="25.8" height="3.9" style="fill: rgb(164, 164, 164);"/>
          <rect x="929.2" y="2768.5" class="st29" width="25.8" height="3.9" style="fill: rgb(164, 164, 164);"/>
          <rect x="1159.5" y="2768.5" class="st29" width="25.8" height="3.9" style="fill: rgb(164, 164, 164);"/>
          <rect x="1233.1" y="2768.5" class="st29" width="25.8" height="3.9" style="fill: rgb(164, 164, 164);"/>
          <rect x="1313.1" y="2768.5" class="st29" width="25.8" height="3.9" style="fill: rgb(164, 164, 164);"/>
          <rect x="1389.8" y="2768.5" class="st29" width="25.8" height="3.9" style="fill: rgb(164, 164, 164);"/>
          <rect x="1466.6" y="2768.5" class="st29" width="25.8" height="3.9" style="fill: rgb(164, 164, 164);"/>
        </g>
        <g>
          <rect x="698.9" y="2691.7" class="st29" width="25.8" height="3.9" style="fill: rgb(164, 164, 164);"/>
          <rect x="775.7" y="2691.7" class="st29" width="25.8" height="3.9" style="fill: rgb(164, 164, 164);"/>
          <rect x="852.5" y="2691.7" class="st29" width="25.8" height="3.9" style="fill: rgb(164, 164, 164);"/>
          <rect x="929.2" y="2691.7" class="st29" width="25.8" height="3.9" style="fill: rgb(164, 164, 164);"/>
          <rect x="1159.5" y="2691.7" class="st29" width="25.8" height="3.9" style="fill: rgb(164, 164, 164);"/>
          <rect x="1083.6" y="2845.3" class="st29" width="25.8" height="3.9" style="fill: rgb(164, 164, 164);"/>
          <rect x="1083.6" y="2768.5" class="st29" width="25.8" height="3.9" style="fill: rgb(164, 164, 164);"/>
          <rect x="1083.6" y="2691.7" class="st29" width="25.8" height="3.9" style="fill: rgb(164, 164, 164);"/>
          <rect x="1005" y="2845.3" class="st29" width="25.8" height="3.9" style="fill: rgb(164, 164, 164);"/>
          <rect x="1005" y="2768.5" class="st29" width="25.8" height="3.9" style="fill: rgb(164, 164, 164);"/>
          <rect x="1005" y="2691.7" class="st29" width="25.8" height="3.9" style="fill: rgb(164, 164, 164);"/>
          <rect x="1233.1" y="2691.7" class="st29" width="25.8" height="3.9" style="fill: rgb(164, 164, 164);"/>
          <rect x="1313.1" y="2691.7" class="st29" width="25.8" height="3.9" style="fill: rgb(164, 164, 164);"/>
          <rect x="1389.8" y="2691.7" class="st29" width="25.8" height="3.9" style="fill: rgb(164, 164, 164);"/>
          <rect x="1466.6" y="2691.7" class="st29" width="25.8" height="3.9" style="fill: rgb(164, 164, 164);"/>
        </g>
      </g>
      <path class="st20" d="M1605.1,3037.2L1605.1,3037.2v-437.8l0,0c-13.5,0-24.4,10.9-24.4,24.4v389 C1580.7,3026.3,1591.6,3037.2,1605.1,3037.2z" style="fill: rgb(224, 224, 224);"/>
      <path class="st20" d="M617.9,3037.2L617.9,3037.2v-437.8l0,0c-13.5,0-24.4,10.9-24.4,24.4v389 C593.5,3026.3,604.4,3037.2,617.9,3037.2z" style="fill: rgb(224, 224, 224);"/>
      <g>
        <rect x="778.2" y="2103.7" class="st19" width="663.1" height="413.7" style="fill: rgb(255, 255, 255);"/>
        <rect x="788.1" y="2111.8" class="st30" width="139.1" height="348.2" style="fill: rgb(61, 118, 153);"/>
        <rect x="788.1" y="2487.9" class="st31" width="643.6" height="22.3" style="fill: rgb(0, 126, 216);"/>
        <rect x="937.3" y="2111.8" class="st31" width="494.4" height="60.9" style="fill: rgb(0, 126, 216);"/>
        <rect x="937.3" y="2180.3" class="st30" width="243.9" height="105.6" style="fill: rgb(61, 118, 153);"/>
        <rect x="937.3" y="2309" class="st10" width="243.9" height="6.8" style="fill: rgb(168, 168, 168);"/>
        <rect x="937.3" y="2341.7" class="st10" width="243.9" height="6.8" style="fill: rgb(168, 168, 168);"/>
        <rect x="937.3" y="2374.5" class="st10" width="243.9" height="6.9" style="fill: rgb(168, 168, 168);"/>
        <rect x="937.3" y="2407.2" class="st10" width="243.9" height="6.9" style="fill: rgb(168, 168, 168);"/>
        <rect x="1187.8" y="2180.3" class="st30" width="243.9" height="105.6" style="fill: rgb(61, 118, 153);"/>
        <rect x="947.5" y="2121.7" class="st32" width="41.9" height="32.7" style="fill: rgb(255, 72, 64);"/>
        <rect x="802.2" y="2121.7" class="st33" width="110.8" height="32.7" style="fill: rgb(158, 245, 249);"/>
        <rect x="802.2" y="2180.3" class="st34" width="110.8" height="32.7" style="fill: rgb(10, 185, 193);"/>
        <rect x="1005.3" y="2121.7" class="st35" width="41.9" height="32.7" style="fill: rgb(255, 207, 64);"/>
        <rect x="1374.6" y="2121.7" class="st34" width="41.9" height="32.7" style="fill: rgb(10, 185, 193);"/>
      </g>
      <g class="st36" style="opacity: 0.7;">
        <polygon class="st19" points="906.1,2094 769.3,2230.9 769.3,2345 1020.3,2094 &#9;&#9;&#9;" style="fill: rgb(255, 255, 255);"/>
        <polygon class="st20" points="769.3,2094 769.3,2230.9 906.1,2094 &#9;&#9;&#9;" style="fill: rgb(224, 224, 224);"/>
        <polygon class="st21" points="1020.3,2094 769.3,2345 769.3,2525.3 863.6,2525.2 1294.8,2094 &#9;&#9;&#9;" style="fill: rgb(191, 191, 191);"/>
        <polygon class="st2" points="1450.9,2270.2 1195.8,2525.4 1450.9,2525.2 &#9;&#9;&#9;" style="fill: rgb(108, 213, 218);"/>
        <polygon class="st19" points="1450.9,2094 1322.6,2094 891.6,2525.1 1195.8,2525.4 1450.9,2270.2 &#9;&#9;&#9;" style="fill: rgb(255, 255, 255);"/>
        <polygon class="st20" points="1294.8,2094 863.6,2525.2 891.6,2525.1 1322.6,2094 &#9;&#9;&#9;" style="fill: rgb(224, 224, 224);"/>
      </g>
    </g>
    <g>
      <path class="st37" d="M829.3,1347.1H662.3c-39.2,0-71.1,31.9-71.1,71.1v370.2v50v41.3c0,11,9,19.9,19.9,19.9h117.6 c11,0,19.9-8.9,19.9-19.9c0-32.6,21.8-59.9,51.6-68.8c6.6-2,13.4-3.4,20.6-3.4h10.3v-19.1v-370.2c0-39.2,31.9-71.1,71.1-71.1 H829.3z" style="fill: rgb(152, 152, 152);"/>
      <path class="st5" d="M902.3,1347.1h-73H662.3c-32,0-58.8,21.4-67.7,50.5h240C843.5,1368.5,870.3,1347.1,902.3,1347.1z" style="fill: rgb(168, 168, 168); opacity: 0.5;"/>
      <path class="st20" d="M1271.5,1807.6c2.5,0,4.9,0.5,7.4,0.8l-0.6-0.8H1271.5z" style="fill: rgb(224, 224, 224);"/>
      <path class="st37" d="M1278.3,1807.6l0.6,0.8c36.3,3.7,64.8,34.2,64.8,71.5c0,11,9,19.9,19.9,19.9h117.6c11,0,19.9-8.9,19.9-19.9 v-41.3v-31.4H1278L1278.3,1807.6z" style="fill: rgb(152, 152, 152);"/>
      <g>
        <path class="st20" d="M637.3,1074.4v603.1c0,24,19.4,43.4,43.4,43.4c24,0,43.4-19.4,43.4-43.4v-603.1H637.3z M708.7,1677.5 c0,15.5-12.6,28-28,28c-15.5,0-28-12.6-28-28v-587.7h56V1677.5z" style="fill: rgb(224, 224, 224);"/>
        <g>
          <rect x="652.7" y="1089.8" class="st38" width="56" height="337.8" style="fill: rgb(224, 224, 224); opacity: 0.58;"/>
          <path class="st39" d="M652.7,1427.6v249.9c0,15.5,12.6,28,28,28c15.4,0,28-12.6,28-28v-249.9H652.7z" style="fill: rgb(108, 213, 218); opacity: 0.87;"/>
        </g>
        <path class="st20" d="M728.3,1066.3h-95c-6.5,0-11.8,5.3-11.8,11.8c0,6.5,5.3,11.7,11.8,11.7h95c6.5,0,11.8-5.3,11.8-11.7 C740.1,1071.6,734.8,1066.3,728.3,1066.3z" style="fill: rgb(224, 224, 224);"/>
        <rect x="637.3" y="1089.8" class="st5" width="86.9" height="13.5" style="fill: rgb(168, 168, 168); opacity: 0.5;"/>
        <path class="st40" d="M687.5,1514.5L687.5,1514.5c-4.8,0-8.7-3.9-8.7-8.6v-286.3c0-4.8,3.9-8.7,8.7-8.7l0,0 c4.8,0,8.6,3.9,8.6,8.7v286.3C696.2,1510.6,692.3,1514.5,687.5,1514.5z" style="fill: rgb(255, 255, 255); opacity: 0.37;"/>
        <rect x="637.3" y="1347.1" class="st5" width="86.9" height="50.5" style="fill: rgb(168, 168, 168); opacity: 0.5;"/>
      </g>
      <g>
        <path class="st20" d="M797.4,1074.4v603.1c0,24,19.4,43.4,43.4,43.4c24,0,43.4-19.4,43.4-43.4v-603.1H797.4z M868.9,1677.5 c0,15.5-12.6,28-28,28c-15.5,0-28-12.6-28-28v-587.7h56V1677.5z" style="fill: rgb(224, 224, 224);"/>
        <g>
          <rect x="812.9" y="1089.8" class="st38" width="56" height="337.8" style="fill: rgb(224, 224, 224); opacity: 0.58;"/>
          <path class="st41" d="M812.9,1427.6v249.9c0,15.5,12.6,28,28,28c15.4,0,28-12.6,28-28v-249.9H812.9z" style="fill: rgb(10, 185, 193); opacity: 0.87;"/>
        </g>
        <path class="st20" d="M888.5,1066.3h-95c-6.5,0-11.8,5.3-11.8,11.8c0,6.5,5.3,11.7,11.8,11.7h95c6.5,0,11.8-5.3,11.8-11.7 C900.2,1071.6,895,1066.3,888.5,1066.3z" style="fill: rgb(224, 224, 224);"/>
        <rect x="797.4" y="1089.8" class="st5" width="86.9" height="13.5" style="fill: rgb(168, 168, 168); opacity: 0.5;"/>
        <path class="st40" d="M847.7,1514.5L847.7,1514.5c-4.8,0-8.7-3.9-8.7-8.6v-286.3c0-4.8,3.9-8.7,8.7-8.7l0,0 c4.8,0,8.6,3.9,8.6,8.7v286.3C856.3,1510.6,852.5,1514.5,847.7,1514.5z" style="fill: rgb(255, 255, 255); opacity: 0.37;"/>
        <rect x="797.4" y="1347.1" class="st5" width="86.9" height="50.5" style="fill: rgb(168, 168, 168); opacity: 0.5;"/>
      </g>
      <g>
        <path class="st20" d="M957.7,1074.4v603.1c0,24,19.4,43.4,43.4,43.4s43.4-19.4,43.4-43.4v-603.1H957.7z M1029.1,1677.5 c0,15.5-12.6,28-28,28c-15.4,0-28-12.6-28-28v-587.7h56V1677.5z" style="fill: rgb(224, 224, 224);"/>
        <g>
          <rect x="973.1" y="1089.8" class="st38" width="56" height="337.8" style="fill: rgb(224, 224, 224); opacity: 0.58;"/>
          <path class="st42" d="M973.1,1427.6v249.9c0,15.5,12.6,28,28,28c15.5,0,28-12.6,28-28v-249.9H973.1z" style="fill: rgb(179, 33, 27); opacity: 0.87;"/>
        </g>
        <path class="st20" d="M1048.7,1066.3h-95c-6.5,0-11.8,5.3-11.8,11.8c0,6.5,5.3,11.7,11.8,11.7h95c6.5,0,11.7-5.3,11.7-11.7 C1060.5,1071.6,1055.2,1066.3,1048.7,1066.3z" style="fill: rgb(224, 224, 224);"/>
        <rect x="957.7" y="1089.8" class="st5" width="86.9" height="13.5" style="fill: rgb(168, 168, 168); opacity: 0.5;"/>
        <path class="st40" d="M1007.9,1514.5L1007.9,1514.5c-4.8,0-8.6-3.9-8.6-8.6v-286.3c0-4.8,3.9-8.7,8.6-8.7l0,0 c4.8,0,8.6,3.9,8.6,8.7v286.3C1016.6,1510.6,1012.7,1514.5,1007.9,1514.5z" style="fill: rgb(255, 255, 255); opacity: 0.37;"/>
        <rect x="957.7" y="1347.1" class="st5" width="86.9" height="50.5" style="fill: rgb(168, 168, 168); opacity: 0.5;"/>
      </g>
      <g>
        <path class="st20" d="M1117.8,1074.4v603.1c0,24,19.4,43.4,43.4,43.4s43.4-19.4,43.4-43.4v-603.1H1117.8z M1189.3,1677.5 c0,15.5-12.6,28-28,28c-15.4,0-28-12.6-28-28v-587.7h56V1677.5z" style="fill: rgb(224, 224, 224);"/>
        <g>
          <rect x="1133.3" y="1089.8" class="st38" width="56" height="337.8" style="fill: rgb(224, 224, 224); opacity: 0.58;"/>
          <path class="st43" d="M1133.3,1427.6v249.9c0,15.5,12.6,28,28,28c15.5,0,28-12.6,28-28v-249.9H1133.3z" style="fill: rgb(242, 132, 0); opacity: 0.87;"/>
        </g>
        <path class="st20" d="M1208.9,1066.3h-95c-6.5,0-11.8,5.3-11.8,11.8c0,6.5,5.3,11.7,11.8,11.7h95c6.5,0,11.7-5.3,11.7-11.7 C1220.6,1071.6,1215.4,1066.3,1208.9,1066.3z" style="fill: rgb(224, 224, 224);"/>
        <rect x="1117.8" y="1089.8" class="st5" width="86.9" height="13.5" style="fill: rgb(168, 168, 168); opacity: 0.5;"/>
        <path class="st40" d="M1168.1,1514.5L1168.1,1514.5c-4.8,0-8.6-3.9-8.6-8.6v-286.3c0-4.8,3.9-8.7,8.6-8.7l0,0 c4.8,0,8.6,3.9,8.6,8.7v286.3C1176.7,1510.6,1172.9,1514.5,1168.1,1514.5z" style="fill: rgb(255, 255, 255); opacity: 0.37;"/>
        <rect x="1117.8" y="1347.1" class="st5" width="86.9" height="50.5" style="fill: rgb(168, 168, 168); opacity: 0.5;"/>
      </g>
      <g>
        <path class="st20" d="M1277.3,1074.4v603.1c0,24,19.5,43.4,43.4,43.4c24,0,43.5-19.4,43.5-43.4v-603.1H1277.3z M1348.8,1677.5 c0,15.5-12.6,28-28,28c-15.4,0-28-12.6-28-28v-587.7h56V1677.5z" style="fill: rgb(224, 224, 224);"/>
        <g>
          <rect x="1292.8" y="1089.8" class="st38" width="56" height="337.8" style="fill: rgb(224, 224, 224); opacity: 0.58;"/>
          <path class="st39" d="M1292.8,1427.6v249.9c0,15.5,12.6,28,28,28c15.5,0,28-12.6,28-28v-249.9H1292.8z" style="fill: rgb(108, 213, 218); opacity: 0.87;"/>
        </g>
        <path class="st20" d="M1368.4,1066.3h-95c-6.5,0-11.8,5.3-11.8,11.8c0,6.5,5.3,11.7,11.8,11.7h95c6.5,0,11.8-5.3,11.8-11.7 C1380.2,1071.6,1374.9,1066.3,1368.4,1066.3z" style="fill: rgb(224, 224, 224);"/>
        <rect x="1277.3" y="1089.8" class="st5" width="86.9" height="13.5" style="fill: rgb(168, 168, 168); opacity: 0.5;"/>
        <path class="st40" d="M1327.6,1514.5L1327.6,1514.5c-4.8,0-8.6-3.9-8.6-8.6v-286.3c0-4.8,3.9-8.7,8.6-8.7l0,0 c4.8,0,8.6,3.9,8.6,8.7v286.3C1336.2,1510.6,1332.4,1514.5,1327.6,1514.5z" style="fill: rgb(255, 255, 255); opacity: 0.37;"/>
        <rect x="1277.3" y="1347.1" class="st5" width="86.9" height="50.5" style="fill: rgb(168, 168, 168); opacity: 0.5;"/>
      </g>
      <g>
        <path class="st20" d="M1437.5,1074.4v603.1c0,24,19.5,43.4,43.4,43.4c24,0,43.5-19.4,43.5-43.4v-603.1H1437.5z M1508.9,1677.5 c0,15.5-12.6,28-28,28c-15.4,0-28-12.6-28-28v-587.7h56V1677.5z" style="fill: rgb(224, 224, 224);"/>
        <g>
          <rect x="1452.9" y="1089.8" class="st38" width="56" height="337.8" style="fill: rgb(224, 224, 224); opacity: 0.58;"/>
          <path class="st44" d="M1452.9,1427.6v249.9c0,15.5,12.6,28,28,28c15.5,0,28-12.6,28-28v-249.9H1452.9z" style="fill: rgb(253, 179, 77); opacity: 0.87;"/>
        </g>
        <path class="st20" d="M1528.6,1066.3h-95c-6.5,0-11.8,5.3-11.8,11.8c0,6.5,5.3,11.7,11.8,11.7h95c6.5,0,11.8-5.3,11.8-11.7 C1540.3,1071.6,1535.1,1066.3,1528.6,1066.3z" style="fill: rgb(224, 224, 224);"/>
        <rect x="1437.5" y="1089.8" class="st5" width="86.9" height="13.5" style="fill: rgb(168, 168, 168); opacity: 0.5;"/>
        <path class="st40" d="M1487.7,1514.5L1487.7,1514.5c-4.8,0-8.6-3.9-8.6-8.6v-286.3c0-4.8,3.9-8.7,8.6-8.7l0,0 c4.8,0,8.6,3.9,8.6,8.7v286.3C1496.4,1510.6,1492.5,1514.5,1487.7,1514.5z" style="fill: rgb(255, 255, 255); opacity: 0.37;"/>
        <rect x="1437.5" y="1347.1" class="st5" width="86.9" height="50.5" style="fill: rgb(168, 168, 168); opacity: 0.5;"/>
      </g>
      <g>
        <path class="st20" d="M1582.4,1074.4v603.1c0,24,19.5,43.4,43.5,43.4c24,0,43.4-19.4,43.4-43.4v-603.1H1582.4z M1653.9,1677.5 c0,15.5-12.6,28-28,28c-15.5,0-28-12.6-28-28v-587.7h56V1677.5z" style="fill: rgb(224, 224, 224);"/>
        <g>
          <rect x="1597.9" y="1089.8" class="st38" width="56" height="337.8" style="fill: rgb(224, 224, 224); opacity: 0.58;"/>
          <path class="st39" d="M1597.9,1427.6v249.9c0,15.5,12.6,28,28,28c15.5,0,28-12.6,28-28v-249.9H1597.9z" style="fill: rgb(108, 213, 218); opacity: 0.87;"/>
        </g>
        <path class="st20" d="M1673.5,1066.3h-95c-6.5,0-11.8,5.3-11.8,11.8c0,6.5,5.3,11.7,11.8,11.7h95c6.5,0,11.8-5.3,11.8-11.7 C1685.3,1071.6,1680,1066.3,1673.5,1066.3z" style="fill: rgb(224, 224, 224);"/>
        <rect x="1582.4" y="1089.8" class="st5" width="86.9" height="13.5" style="fill: rgb(168, 168, 168); opacity: 0.5;"/>
        <path class="st40" d="M1632.7,1514.5L1632.7,1514.5c-4.8,0-8.6-3.9-8.6-8.6v-286.3c0-4.8,3.9-8.7,8.6-8.7l0,0 c4.8,0,8.7,3.9,8.7,8.7v286.3C1641.4,1510.6,1637.5,1514.5,1632.7,1514.5z" style="fill: rgb(255, 255, 255); opacity: 0.37;"/>
        <rect x="1582.4" y="1347.1" class="st5" width="86.9" height="50.5" style="fill: rgb(168, 168, 168); opacity: 0.5;"/>
      </g>
      <path class="st24" d="M1532.1,1879.8v-41.3v-50v-370.2c0-56.3-45.7-102-102-102H902.3h-240c-56.3,0-102,45.7-102,102v370.2v50 v41.3c0,28.1,22.8,50.8,50.8,50.8h117.6c3.5,0,7-0.4,10.3-1c23.1-4.8,40.5-25.2,40.5-49.8c0-22.8,18.5-41.3,41.3-41.3h240h210.6 c22.8,0,41.3,18.5,41.3,41.3c0,28.1,22.8,50.8,50.8,50.8h117.6c2.5,0,4.8-0.4,7.2-0.7C1513.1,1926.4,1532.1,1905.4,1532.1,1879.8z M1060.9,1807.6H831.2h-10.3c-7.2,0-14,1.4-20.6,3.4c-29.7,8.9-51.6,36.2-51.6,68.8c0,11-8.9,19.9-19.9,19.9H611.1 c-11,0-19.9-8.9-19.9-19.9v-41.3v-50v-370.2c0-39.2,31.9-71.1,71.1-71.1h166.9h73h527.9c39.2,0,71.1,31.9,71.1,71.1v370.2v18.6 v31.4v41.3c0,11-8.9,19.9-19.9,19.9h-117.6c-11,0-19.9-8.9-19.9-19.9c0-37.3-28.5-67.7-64.8-71.5c-2.5-0.3-4.8-0.8-7.4-0.8H1060.9 z" style="fill: rgb(185, 185, 185);"/>
      <path class="st20" d="M1670.1,1316.3h-240c56.3,0,102,45.7,102,102v370.2v50v41.3c0,25.6-19,46.6-43.6,50.1l-0.1,0.2h109.8 c1.8,0.2,3.6,0.5,5.5,0.5h117.6c28.1,0,50.8-22.7,50.8-50.8v-41.3v-50v-370.2C1772.1,1361.9,1726.4,1316.3,1670.1,1316.3z" style="fill: rgb(224, 224, 224);"/>
      <path class="st20" d="M739.1,1929.5l-0.3,0.5h106.9c1.8,0.2,3.6,0.5,5.5,0.5h117.6c28.1,0,50.8-22.7,50.8-50.8h-240 C779.6,1904.3,762.2,1924.8,739.1,1929.5z" style="fill: rgb(224, 224, 224);"/>
      <path class="st20" d="M1060.9,1838.5h-240c-22.8,0-41.3,18.5-41.3,41.3h240C1019.6,1857,1038.1,1838.5,1060.9,1838.5z" style="fill: rgb(224, 224, 224);"/>
      <path class="st45" d="M1060.9,1838.5h-240c-22.8,0-41.3,18.5-41.3,41.3h240C1019.6,1857,1038.1,1838.5,1060.9,1838.5z" style="fill: rgb(168, 168, 168); opacity: 0.26;"/>
    </g>
  </g>
</svg>