<?xml version="1.0" encoding="utf-8"?>
<svg id="ee53e21e-3957-4d81-a8a1-5950f465cd80" data-name="Layer 1" width="801.19718" height="614.27258" viewBox="0 0 801.19718 614.27258" xmlns="http://www.w3.org/2000/svg">
  <g id="Background" style="" transform="matrix(0.207127, 0, 0, 0.207127, 31.490313, -75.084839)"/>
  <g id="Illustration" style="" transform="matrix(0.207127, 0, 0, 0.207127, 31.490313, -75.084839)">
    <g>
      <path class="st0" d="M2110,688.4c-0.7,0.2-1.5,0.1-2.2-0.2c-1.8-0.8-2.6-2.9-1.8-4.7c1.9-4.3,3.9-8.7,5.9-13 c0.8-1.8,3-2.5,4.7-1.7c1.8,0.8,2.5,3,1.6,4.7c-2,4.2-4,8.5-5.8,12.7C2111.9,687.4,2111,688.1,2110,688.4z" style="fill: rgb(145, 179, 250);"/>
      <path class="st0" d="M2787.2,680.7c-1.6,0.4-3.3-0.4-4-2c-4-8.7-8.4-17.3-13.1-25.6c-1-1.7-0.4-3.9,1.3-4.8c1.7-1,3.9-0.4,4.8,1.3 c4.8,8.5,9.3,17.3,13.3,26.1c0.8,1.8,0,3.9-1.7,4.7C2787.7,680.6,2787.5,680.7,2787.2,680.7z M2748.3,615.3 c-1.3,0.3-2.8-0.2-3.7-1.3c-5.7-7.6-11.8-15.2-18.1-22.4c-1.3-1.5-1.1-3.7,0.3-5c1.5-1.3,3.7-1.1,5,0.3c6.4,7.4,12.6,15,18.4,22.8 c1.2,1.6,0.8,3.8-0.7,4.9C2749.2,615,2748.8,615.2,2748.3,615.3z M2696.9,559.2c-1.1,0.3-2.3,0-3.2-0.8 c-7.1-6.4-14.6-12.5-22.2-18.3c-1.6-1.2-1.9-3.4-0.7-4.9c1.2-1.5,3.4-1.9,4.9-0.7c7.7,5.9,15.3,12.1,22.6,18.6 c1.5,1.3,1.6,3.5,0.3,5C2698.2,558.7,2697.6,559.1,2696.9,559.2z M2139,634.4c-0.9,0.2-1.9,0.1-2.8-0.5c-1.6-1.1-2.1-3.3-1-4.9 c5.3-8.1,11-16.2,16.9-23.9c1.2-1.5,3.4-1.8,5-0.6c1.5,1.2,1.8,3.4,0.6,5c-5.8,7.6-11.4,15.5-16.6,23.5 C2140.6,633.7,2139.9,634.2,2139,634.4z M2635.2,514.7c-0.8,0.2-1.8,0.1-2.6-0.4c-8.3-4.8-16.8-9.2-25.5-13.3 c-1.8-0.8-2.5-2.9-1.7-4.7c0.8-1.8,2.9-2.5,4.7-1.7c8.8,4.2,17.5,8.7,26,13.6c1.7,1,2.3,3.1,1.3,4.8 C2636.9,513.9,2636.1,514.5,2635.2,514.7z M2186.9,575.2c-1.2,0.3-2.4,0-3.3-0.9c-1.4-1.4-1.4-3.6,0-5c6.9-6.9,14.1-13.7,21.4-20 c1.5-1.3,3.7-1.1,5,0.4c1.3,1.5,1.1,3.7-0.4,5c-7.2,6.2-14.3,12.8-21,19.6C2188.1,574.8,2187.5,575.1,2186.9,575.2z M2565.7,483.8 c-0.6,0.1-1.3,0.1-1.9-0.1c-9-3-18.3-5.6-27.7-7.8c-1.9-0.5-3.1-2.4-2.6-4.3c0.5-1.9,2.4-3.1,4.3-2.6c9.5,2.3,19,5,28.2,8 c1.9,0.6,2.9,2.6,2.3,4.5C2567.8,482.7,2566.8,483.5,2565.7,483.8z M2245.7,526.9c-1.4,0.3-2.9-0.2-3.8-1.5 c-1.1-1.6-0.6-3.8,1-4.9c8.1-5.4,16.6-10.5,25.1-15.2c1.7-0.9,3.9-0.3,4.8,1.4c0.9,1.7,0.3,3.9-1.4,4.8 c-8.3,4.6-16.6,9.6-24.6,14.9C2246.5,526.7,2246.1,526.8,2245.7,526.9z M2491.3,467.7c-0.4,0.1-0.8,0.1-1.2,0.1 c-9.5-1-19.1-1.7-28.7-2c-2-0.1-3.5-1.7-3.4-3.6c0.1-1.9,1.7-3.5,3.6-3.4c9.7,0.3,19.6,1,29.2,2.1c1.9,0.2,3.3,2,3.1,3.9 C2493.8,466.2,2492.7,467.4,2491.3,467.7z M2415.2,467.2c-0.2,0-0.3,0.1-0.5,0.1c-9.5,0.9-19.1,2.2-28.5,3.8 c-1.9,0.3-3.8-1-4.1-2.9c-0.3-1.9,1-3.7,2.9-4.1c9.6-1.7,19.4-3,29.1-3.9c1.9-0.2,3.7,1.2,3.8,3.2 C2418,465.2,2416.9,466.8,2415.2,467.2z M2313.2,491.7c-1.7,0.4-3.4-0.5-4.1-2.1c-0.7-1.8,0.2-3.9,2-4.6c9-3.6,18.4-6.9,27.7-9.7 c1.9-0.5,3.8,0.5,4.4,2.3c0.6,1.9-0.5,3.8-2.3,4.4c-9.1,2.8-18.3,6-27.1,9.6C2313.5,491.6,2313.3,491.6,2313.2,491.7z" style="fill: rgb(145, 179, 250);"/>
      <path class="st0" d="M2808.3,738.4c-1.8,0.4-3.7-0.7-4.2-2.5c-1.2-4.5-2.5-9-3.9-13.4c-0.6-1.9,0.4-3.8,2.3-4.4 c1.9-0.5,3.8,0.5,4.4,2.3c1.4,4.5,2.8,9.1,4,13.7c0.5,1.9-0.6,3.8-2.5,4.3C2808.4,738.4,2808.3,738.4,2808.3,738.4z" style="fill: rgb(145, 179, 250);"/>
    </g>
    <g>
      <path class="st0" d="M2770,1025.4c-0.9,0.2-1.8,0.1-2.6-0.4c-1.7-1-2.2-3.2-1.2-4.8c2.4-4,4.7-8.1,6.9-12.2 c0.9-1.7,3.1-2.3,4.8-1.4c1.7,0.9,2.4,3.1,1.4,4.8c-2.2,4.1-4.6,8.3-7,12.4C2771.7,1024.6,2770.9,1025.2,2770,1025.4z" style="fill: rgb(145, 179, 250);"/>
      <path class="st0" d="M2537.6,1197.4l-3.1,0.7c-1.9,0.4-3.8-0.7-4.2-2.6c-0.4-1.9,0.7-3.8,2.6-4.2c0,0,0,0,0,0l3-0.7 c8.1-2,16.3-4.2,24.3-6.7c1.9-0.5,3.8,0.5,4.4,2.3c0.6,1.9-0.4,3.8-2.3,4.4C2554.2,1193.1,2545.9,1195.4,2537.6,1197.4z M2488.8,1205.8c-0.2,0-0.3,0.1-0.5,0.1c-9.5,1-19.2,1.6-28.8,1.9c-1.9,0.1-3.6-1.5-3.6-3.4c-0.1-2,1.5-3.6,3.4-3.6 c9.4-0.2,18.9-0.9,28.2-1.8c1.9-0.2,3.7,1.2,3.9,3.1C2491.6,1203.8,2490.5,1205.4,2488.8,1205.8z M2605.4,1173.9 c-1.6,0.4-3.3-0.4-4-2c-0.8-1.8,0-3.9,1.7-4.7c8.5-3.9,17-8.2,25.2-12.8c1.7-1,3.9-0.3,4.8,1.4c1,1.7,0.3,3.9-1.4,4.8 c-8.4,4.7-17,9-25.7,13.1C2605.8,1173.8,2605.6,1173.9,2605.4,1173.9z M2413.9,1206c-0.4,0.1-0.8,0.1-1.2,0.1 c-9.6-0.9-19.2-2.3-28.6-3.9c-1.9-0.3-3.2-2.2-2.9-4.1c0.3-1.9,2.2-3.2,4.1-2.9c9.2,1.6,18.7,2.9,28,3.8c1.9,0.2,3.4,1.9,3.2,3.9 C2416.4,1204.4,2415.3,1205.7,2413.9,1206z M2669.9,1135.9c-1.3,0.3-2.8-0.2-3.7-1.3c-1.2-1.6-0.8-3.8,0.8-4.9 c7.5-5.5,15-11.5,22.1-17.6c1.5-1.3,3.7-1.1,5,0.4c1.3,1.5,1.1,3.7-0.4,5c-7.3,6.3-14.9,12.3-22.6,18 C2670.8,1135.6,2670.4,1135.8,2669.9,1135.9z M2340.5,1191.2c-0.6,0.1-1.2,0.1-1.9-0.1c-9.1-2.8-18.3-6-27.2-9.6 c-1.8-0.7-2.7-2.8-2-4.6c0.7-1.8,2.8-2.7,4.6-2c8.7,3.5,17.7,6.6,26.7,9.4c1.9,0.6,2.9,2.6,2.3,4.4 C2342.6,1190.1,2341.6,1190.9,2340.5,1191.2z M2725.5,1085.7c-1.1,0.3-2.3,0-3.2-0.8c-1.4-1.3-1.6-3.5-0.2-5 c6.3-7,12.4-14.3,18.2-21.7c1.2-1.5,3.4-1.8,5-0.6c1.5,1.2,1.8,3.4,0.6,5c-5.9,7.6-12.1,15-18.5,22.1 C2726.8,1085.2,2726.2,1085.5,2725.5,1085.7z M2271.5,1162c-0.8,0.2-1.7,0.1-2.5-0.3c-8.4-4.6-16.7-9.6-24.7-14.9 c-1.6-1.1-2.1-3.3-1-4.9c1.1-1.6,3.3-2.1,4.9-1c7.9,5.2,16,10.1,24.2,14.6c1.7,0.9,2.3,3.1,1.4,4.8 C2273.3,1161.1,2272.5,1161.7,2271.5,1162z M2209.9,1119.4c-1.1,0.3-2.2,0-3.1-0.7c-5.7-4.9-11.4-10-16.9-15.3 c-1.5-1.4-2.9-2.8-4.4-4.3c-1.4-1.4-1.4-3.6,0-5c1.4-1.4,3.6-1.4,5,0c1.4,1.4,2.8,2.8,4.3,4.2c5.4,5.1,10.9,10.2,16.6,15 c1.5,1.3,1.7,3.5,0.4,5C2211.3,1118.9,2210.6,1119.2,2209.9,1119.4z M2158,1065.4c-1.3,0.3-2.7-0.1-3.6-1.3 c-5.9-7.5-11.6-15.4-16.9-23.4c-1.1-1.6-0.6-3.8,1-4.9c1.6-1.1,3.8-0.6,4.9,1c5.2,7.8,10.8,15.5,16.6,22.9c1.2,1.5,0.9,3.8-0.6,5 C2159,1065.1,2158.5,1065.3,2158,1065.4z M2118,1002.1c-1.6,0.4-3.2-0.4-4-1.9c-4.3-8.6-8.3-17.4-11.8-26.3 c-0.7-1.8,0.1-3.9,2-4.6c1.8-0.7,3.9,0.1,4.6,2c3.5,8.7,7.4,17.4,11.6,25.8c0.9,1.7,0.2,3.9-1.6,4.7 C2118.5,1001.9,2118.3,1002,2118,1002.1z" style="fill: rgb(145, 179, 250);"/>
      <path class="st0" d="M2091.6,931.9c-1.9,0.4-3.7-0.7-4.2-2.5c-1.2-4.5-2.3-9.2-3.4-13.8c-0.4-1.9,0.9-3.7,2.7-4.2 c1.9-0.4,3.8,0.8,4.2,2.7c1,4.6,2.1,9.1,3.3,13.6C2094.7,929.4,2093.5,931.4,2091.6,931.9C2091.6,931.9,2091.6,931.9,2091.6,931.9 z" style="fill: rgb(145, 179, 250);"/>
    </g>
    <path class="st1" d="M2165.7,860.3c0,1.9,1.2,3.6,3,4.2l51,18.3c5.5,24.7,14.9,48.7,28.4,71l-24.3,48.4c-0.9,1.7-0.5,3.8,0.8,5.1 l45.4,46.5c1.3,1.4,3.4,1.7,5.1,0.9l49-23.2c22,14,45.8,24,70.4,30.1l17.1,51.5c0.6,1.8,2.3,3,4.2,3.1l65,0.8c1.9,0,3.6-1.2,4.2-3 l18.3-51c24.7-5.5,48.7-14.9,71-28.4l48.4,24.3c1.7,0.9,3.8,0.5,5.1-0.8l46.5-45.4c1.4-1.3,1.7-3.4,0.9-5.1l-23.2-49 c14-22,24-45.8,30.1-70.3l51.5-17.1c1.8-0.6,3-2.3,3.1-4.2l0.8-65c0-1.9-1.2-3.6-3-4.2l-51-18.3c-5.5-24.7-14.9-48.7-28.4-71 l24.3-48.4c0.9-1.7,0.5-3.8-0.8-5.1l-45.4-46.5c-1.3-1.4-3.4-1.7-5.1-0.9l-49,23.2c-22-14-45.8-24-70.4-30.1l-17.1-51.5 c-0.6-1.8-2.3-3-4.2-3.1l-65-0.8c-1.9,0-3.6,1.2-4.2,3l-18.3,51c-24.7,5.5-48.7,14.9-71,28.4l-48.4-24.3c-1.7-0.9-3.7-0.5-5.1,0.8 l-46.5,45.4c-1.4,1.3-1.7,3.4-0.9,5.1l23.2,49c-14,22-24,45.8-30.1,70.3l-51.5,17.1c-1.8,0.6-3,2.3-3.1,4.2L2165.7,860.3z" style="fill: rgb(6, 194, 185);"/>
    <g>
      <path class="st2" d="M2466.3,892.4C2466.3,892.4,2466.3,892.4,2466.3,892.4c-16.4,3.9-33.4,1.3-47.7-7.5s-24.4-22.7-28.4-39 c-3.9-16.4-1.2-33.3,7.6-47.7c18.2-29.6,57.1-39,86.7-20.8c14.4,8.8,24.4,22.7,28.4,39c3.9,16.4,1.2,33.3-7.6,47.7 C2496.5,878.4,2482.7,888.5,2466.3,892.4z M2439.3,780.1c-13.6,3.3-25.1,11.6-32.4,23.6c-7.3,11.9-9.6,26-6.3,39.6 c3.3,13.6,11.6,25.2,23.6,32.5c11.9,7.3,26,9.6,39.6,6.3c0,0,0,0,0,0c13.6-3.3,25.1-11.6,32.4-23.6c7.3-11.9,9.6-26,6.3-39.6 c-3.3-13.6-11.6-25.2-23.6-32.5C2467,779.1,2453,776.9,2439.3,780.1C2439.3,780.1,2439.3,780.1,2439.3,780.1z" style="fill: rgb(189, 208, 251);"/>
    </g>
    <g>
      <path class="st2" d="M2491.2,988.6c-53.8,13-112.9-1.9-154.3-44.3c-8.1-8.3-15.3-17.4-21.4-27.1l9-5.6c5.7,9.1,12.4,17.6,20,25.4 c45.9,47,115.1,57.8,171.7,31.9c0.1,0,0.2-0.1,0.3-0.1c0.1-0.1,0.2-0.1,0.3-0.1c15.2-7,29.5-16.7,42.1-29.1 c29-28.3,45.2-66.2,45.7-106.7c0.2-12.8-1.3-25.4-4.2-37.6c-6.3-26.2-19.6-50.3-38.9-70.1c-58.4-59.8-154.6-60.9-214.4-2.5 c-19.7,19.2-33.7,43.3-40.7,69.8l-10.2-2.7c7.4-28.3,22.5-54.1,43.5-74.7c64-62.5,166.9-61.3,229.4,2.7c20.7,21.2,34.9,47,41.6,75 c3.1,13,4.7,26.5,4.5,40.2c-0.5,43.3-17.9,83.9-48.9,114.1C2544.7,968.2,2518.6,982,2491.2,988.6z" style="fill: rgb(189, 208, 251);"/>
    </g>
    <g>
      <path class="st0" d="M2747.8,786.9c-0.8,0.2-1.7,0.1-2.6-0.2c-2-0.9-3-3.3-2.1-5.3c2.2-5,4.5-10,7-14.8c1-2,3.4-2.8,5.4-1.7 c2,1,2.8,3.5,1.7,5.4c-2.4,4.7-4.7,9.5-6.8,14.3C2750.1,785.8,2749,786.7,2747.8,786.9z" style="fill: rgb(145, 179, 250);"/>
      <path class="st0" d="M3192.6,755.7c-1.7,0.4-3.4-0.3-4.4-1.8c-5.8-9.4-12.3-18.5-19.3-27c-1.4-1.7-1.2-4.3,0.6-5.7 c1.7-1.4,4.3-1.2,5.7,0.6c7.2,8.8,13.9,18.2,19.9,27.9c1.2,1.9,0.6,4.4-1.3,5.5C3193.4,755.5,3193,755.6,3192.6,755.7z M3133.9,689.9c-1.2,0.3-2.4,0-3.4-0.8c-8.7-6.9-17.9-13.2-27.4-18.8c-1.9-1.1-2.6-3.6-1.4-5.5c1.1-1.9,3.6-2.6,5.5-1.4 c9.8,5.8,19.3,12.3,28.3,19.4c1.7,1.4,2,3.9,0.7,5.7C3135.6,689.2,3134.8,689.7,3133.9,689.9z M2785,726.7c-1.2,0.3-2.5,0-3.5-0.8 c-1.7-1.4-1.9-4-0.5-5.7c3.9-4.7,8-9.3,12.3-13.7c3.7-3.8,7.5-7.6,11.4-11.1c1.6-1.5,4.2-1.4,5.7,0.2c1.5,1.6,1.4,4.2-0.2,5.7 c-3.8,3.5-7.5,7.1-11,10.8c-4.1,4.3-8.1,8.8-11.9,13.3C2786.6,726.1,2785.8,726.5,2785,726.7z M3056.2,648.3 c-0.7,0.2-1.5,0.2-2.2-0.1c-10.5-3.4-21.3-6.1-32.2-8.1c-2.2-0.4-3.6-2.5-3.2-4.7c0.4-2.2,2.5-3.6,4.7-3.2 c11.2,2,22.4,4.9,33.2,8.4c2.1,0.7,3.3,3,2.6,5.1C3058.6,647,3057.5,647.9,3056.2,648.3z M2852.4,669.8c-1.7,0.4-3.5-0.3-4.4-1.9 c-1.1-1.9-0.5-4.4,1.5-5.5c9.9-5.7,20.2-10.8,30.8-15.1c2.1-0.9,4.4,0.1,5.3,2.2c0.8,2.1-0.1,4.4-2.2,5.3 c-10.2,4.2-20.2,9.1-29.8,14.7C2853.1,669.5,2852.7,669.7,2852.4,669.8z M2968.8,636.2c-0.3,0.1-0.5,0.1-0.8,0.1 c-11,0.4-22.2,1.6-33,3.5c-2.2,0.4-4.3-1.1-4.7-3.3c-0.4-2.2,1.1-4.2,3.3-4.7c11.2-1.9,22.7-3.1,34.1-3.6c2.2-0.1,4.1,1.7,4.2,3.9 C2972,634,2970.7,635.7,2968.8,636.2z" style="fill: rgb(145, 179, 250);"/>
      <path class="st0" d="M3220.8,820.9c-2.1,0.5-4.3-0.7-4.8-2.9c-1.4-5.1-3-10.2-4.7-15.2c-0.7-2.1,0.4-4.4,2.5-5.1 c2.1-0.8,4.4,0.4,5.1,2.5c1.8,5.1,3.4,10.4,4.8,15.7c0.6,2.1-0.7,4.4-2.8,5C3220.9,820.8,3220.9,820.8,3220.8,820.9z" style="fill: rgb(145, 179, 250);"/>
    </g>
    <g>
      <path class="st0" d="M3191.5,1020.9c-1,0.2-2.1,0.1-3.1-0.5c-1.9-1.2-2.5-3.7-1.3-5.6c2.8-4.5,5.5-9.1,8-13.7 c1.1-2,3.5-2.7,5.5-1.6c2,1.1,2.7,3.5,1.6,5.5c-2.6,4.8-5.4,9.5-8.3,14.2C3193.4,1020,3192.5,1020.6,3191.5,1020.9z" style="fill: rgb(145, 179, 250);"/>
      <path class="st0" d="M3056.9,1126.3c-2,0.5-4.1-0.7-4.8-2.7c-0.7-2.1,0.5-4.4,2.6-5.1c10.3-3.4,20.5-7.5,30.3-12.2 c2-1,4.4-0.1,5.4,1.9c1,2,0.1,4.4-1.9,5.4c-10.1,4.9-20.6,9.1-31.3,12.6C3057.1,1126.2,3057,1126.2,3056.9,1126.3z M3004.2,1137.4 c-0.2,0-0.4,0.1-0.5,0.1c-11.2,1.1-22.5,1.6-33.7,1.2c-2.2-0.1-4-1.9-3.9-4.2c0.1-2.2,1.9-4,4.2-3.9c10.9,0.3,21.8-0.1,32.6-1.2 c2.2-0.2,4.2,1.4,4.4,3.6C3007.4,1135.1,3006.1,1137,3004.2,1137.4z M3133.4,1085.3c-1.5,0.4-3.1-0.1-4.1-1.4 c-1.4-1.8-1.1-4.3,0.7-5.7c8.5-6.7,16.7-14,24.3-21.8c1.5-1.6,4.1-1.6,5.7-0.1c1.6,1.6,1.6,4.1,0.1,5.7 c-7.9,8-16.3,15.6-25.1,22.5C3134.5,1085,3133.9,1085.2,3133.4,1085.3z M2917.6,1131.4c-0.6,0.1-1.3,0.2-1.9,0 c-10.9-2.7-21.7-6.2-32.1-10.3c-2.1-0.8-3.1-3.2-2.3-5.2c0.8-2.1,3.2-3.1,5.2-2.3c10.1,4,20.5,7.3,31.1,9.9 c2.2,0.5,3.5,2.7,2.9,4.9C2920.2,1129.9,2919,1131,2917.6,1131.4z M2838.3,1096.2c-1.1,0.3-2.2,0.1-3.2-0.6 c-9.3-6.2-18.3-13.2-26.7-20.6c-1.7-1.5-1.8-4-0.4-5.7c1.5-1.7,4-1.8,5.7-0.4c8.2,7.2,16.9,13.9,25.8,20c1.8,1.2,2.3,3.7,1.1,5.6 C2840.1,1095.4,2839.3,1096,2838.3,1096.2z M2775.7,1036.1c-1.5,0.4-3.2-0.2-4.2-1.5c-6.7-9-12.8-18.6-18.1-28.4 c-1.1-2-0.4-4.4,1.6-5.5c2-1.1,4.4-0.4,5.5,1.6c5.2,9.5,11.1,18.8,17.6,27.5c1.3,1.8,0.9,4.3-0.9,5.6 C2776.7,1035.8,2776.2,1036,2775.7,1036.1z" style="fill: rgb(145, 179, 250);"/>
      <path class="st0" d="M2737.1,958.2c-2.1,0.5-4.2-0.7-4.8-2.8c-1.5-5.2-2.9-10.6-4.1-15.9c-0.5-2.2,0.9-4.3,3-4.8c0,0,0,0,0.1,0 c2.2-0.5,4.3,0.9,4.8,3.1c1.2,5.1,2.5,10.3,4,15.4c0.6,2.1-0.6,4.4-2.7,5C2737.2,958.2,2737.2,958.2,2737.1,958.2z" style="fill: rgb(145, 179, 250);"/>
    </g>
    <path class="st1" d="M2785.2,901.8c0,1.3,0.8,2.4,2,2.9l34.6,12.4c3.7,16.7,10.1,33,19.3,48.1l-16.5,32.8c-0.6,1.2-0.4,2.5,0.5,3.5 l30.8,31.5c0.9,0.9,2.3,1.2,3.4,0.6l33.2-15.7c14.9,9.5,31,16.3,47.7,20.4l11.6,34.9c0.4,1.2,1.5,2.1,2.8,2.1l44,0.5 c1.3,0,2.4-0.8,2.9-2l12.4-34.6c16.7-3.7,33-10.1,48.1-19.3l32.8,16.5c1.2,0.6,2.5,0.4,3.5-0.5l31.5-30.8c0.9-0.9,1.2-2.3,0.6-3.4 l-15.7-33.2c9.5-14.9,16.3-31,20.4-47.7l34.9-11.6c1.2-0.4,2.1-1.5,2.1-2.8l0.5-44c0-1.3-0.8-2.4-2-2.9l-34.6-12.4 c-3.7-16.7-10.1-33-19.3-48.1l16.5-32.8c0.6-1.1,0.4-2.5-0.5-3.5l-30.8-31.5c-0.9-0.9-2.3-1.2-3.4-0.6l-33.2,15.7 c-14.9-9.5-31-16.3-47.7-20.4L3006,691c-0.4-1.2-1.5-2.1-2.8-2.1l-44-0.5c-1.3,0-2.4,0.8-2.9,2l-12.4,34.6 c-16.7,3.7-33,10.1-48.1,19.3l-32.8-16.5c-1.1-0.6-2.5-0.4-3.5,0.5l-31.5,30.8c-0.9,0.9-1.2,2.3-0.6,3.4l15.7,33.2 c-9.5,14.9-16.3,31-20.4,47.7l-34.9,11.6c-1.2,0.4-2.1,1.5-2.1,2.8L2785.2,901.8z" style="fill: rgb(6, 194, 185);"/>
    <g>
      <path class="st2" d="M2989.4,925.9C2989.4,926,2989.4,926,2989.4,925.9c-11.8,2.8-23.9,0.9-34.2-5.4c-10.3-6.3-17.5-16.2-20.3-28 c-2.8-11.7-0.9-23.9,5.4-34.1c13-21.2,40.9-27.9,62.1-14.9c10.3,6.3,17.5,16.2,20.3,28c2.8,11.7,0.9,23.9-5.4,34.1 C3011,915.9,3001.1,923.1,2989.4,925.9z M2971.1,849.9c-8.2,2-15.7,7.1-20.5,14.8c-4.6,7.5-6,16.4-4,25 c2.1,8.6,7.3,15.9,14.9,20.5c7.5,4.6,16.4,6,25,4c0,0,0,0,0,0c8.6-2.1,15.8-7.3,20.4-14.9c4.6-7.5,6-16.4,4-25 c-2.1-8.6-7.3-15.9-14.9-20.5C2988.3,849.1,2979.3,847.9,2971.1,849.9z" style="fill: rgb(189, 208, 251);"/>
    </g>
    <g>
      <path class="st2" d="M3006.3,991.1c-37.3,9-78.2-1.3-106.9-30.7c-5-5.1-9.4-10.6-13.3-16.5c-0.5-0.8-1-1.5-1.5-2.3l10.2-6.4 c3.8,6,8.2,11.6,13.2,16.8l0,0c5.5,5.7,11.6,10.6,18,14.6c0,0,0,0,0.1,0c0,0,0.1,0,0.1,0.1c28.6,18.1,64.6,20.3,95.1,6.5 c7.9-3.6,15.4-8.2,22.3-14c0.2-0.2,0.4-0.4,0.7-0.6c0.2-0.2,0.4-0.3,0.5-0.5c0.5-0.4,0.9-0.8,1.4-1.2c1.2-1.1,2.4-2.2,3.6-3.4 c19.2-18.7,29.9-43.8,30.2-70.5c0.1-8.5-0.8-16.8-2.8-24.9c-4.2-17.3-13-33.3-25.7-46.4c-18.7-19.2-43.8-29.9-70.5-30.2 c-26.8-0.3-52.1,9.8-71.2,28.5c-13,12.7-22.3,28.6-26.9,46.1l-11.7-3.1c5.2-19.6,15.6-37.5,30.1-51.7c21.5-21,49.8-32.3,79.8-32 c30,0.4,58.1,12.4,79,33.8c14.3,14.7,24.2,32.5,28.8,52c2.2,9,3.2,18.3,3.1,27.9c-0.4,30-12.4,58.1-33.8,79 C3043.3,977,3025.2,986.5,3006.3,991.1z" style="fill: rgb(189, 208, 251);"/>
    </g>
    <path class="st1" d="M511.3,478.4c-3-12.6,14.8-21,25.6-12.2c110.3,89.5,375.4,357.4,309.4,825.6 c-82.9,587.4,58.8,801.8,235.2,932.5c0,0-242.3-61.5-394.7-279C312.6,1411.3,564,702.6,511.3,478.4z" style="fill: rgb(6, 194, 185);"/>
    <path class="st3" d="M595.2,661.8c13.8,65.4,26.1,131,35.6,196.9c9.9,65.8,17.5,131.9,22.7,198.1c4.9,66.2,8.4,132.4,8.6,198.7 c0.5,66.3-2.2,132.5-5.2,199c-2.6,66.5-5.7,133.4-0.8,200.8c4.8,67.3,18.9,135.1,47,198.8c7,15.9,14.4,31.7,22.8,46.9 c8.1,15.4,16.9,30.5,26.1,45.5c18.5,29.9,39.4,58.7,62.6,86.1c46.6,54.7,102.9,103.2,164.8,144.2c6.5,4.3,15.9,3.3,20.9-2.4 c4.9-5.5,3.8-13.4-2.4-17.8l0,0c-14.7-10.4-29.3-20.8-43.3-31.8c-7.1-5.4-13.9-11.1-20.8-16.6c-6.7-5.8-13.6-11.3-20.1-17.3 c-26.3-23.4-50.7-48.4-72.8-74.8c-44.5-52.6-80.1-111.2-107-171.9c-13.1-30.5-23.6-61.8-31.2-93.7c-7.6-31.9-12.4-64.3-15.1-97 c-5.3-65.4-2.9-131.7-0.9-198.2c2-66.5,3.4-133.3,1.6-200.1c-0.8-33.4-2.2-66.8-4.4-100.1c-1-16.7-2.3-33.3-3.6-50 c-1.5-16.6-3.1-33.3-4.8-49.9c-7.2-66.5-16.7-132.7-28.6-198.6c-12.3-65.8-26.6-131.4-43.8-196.3c-0.5-1.9-2.6-3-4.8-2.6 C596.2,658.3,594.9,660,595.2,661.8z" style="fill: rgb(255, 255, 255);"/>
    <path class="st1" d="M777.2,1811.6c-13.5,14.4-37.3,10.2-45.5-7.7c-44.9-99.1-146.5-390.9,21.3-727 C894.8,793,944.7,625.6,962,548.1c3.7-16.4,26.1-18.6,32.9-3.2C1069.8,714.5,1267.4,1291.5,777.2,1811.6z" style="fill: rgb(6, 194, 185);"/>
    <path class="st3" d="M752.7,1801.2c-0.5,0.1-1,0.1-1.5,0.1c-4.3-0.1-7.6-3.6-7.6-7.8c0.1-4.8,9.5-486.7,188.7-890.3 c1.7-3.9,6.3-5.6,10.2-3.9c3.9,1.7,5.6,6.3,3.9,10.2c-177.9,400.6-187.3,879.5-187.4,884.3C758.9,1797.5,756.2,1800.5,752.7,1801.2 z" style="fill: rgb(255, 255, 255);"/>
    <polygon class="st4" points="1670.8,2287.1 1613.9,2797.2 2273.8,2797.2 2187.9,2287.1 &#9;" style="fill: rgb(5, 66, 60);"/>
    <path class="st5" d="M522.5,993.8V2196c0,98.9,78.8,179.8,177.7,182.3c439.1,11.3,1974.8,38.8,2392.8,32.6 c71.8-1.1,130-58.5,132.1-130.4c8.1-279.3,21.2-950.9-27.3-1262.7c-10.2-65.7-65.6-114.8-132-116.9 c-367.9-11.8-1995.9-49.1-2413.7-39.8C580.1,862.9,522.5,921.8,522.5,993.8z" style="fill: rgb(7, 165, 153);"/>
    <path class="st6" d="M598,988v1142.2c0,57.7,46.3,104.8,104.1,105.7l2330.9,28.8c57.2,0.9,104.2-45.2,104.4-102.4l3.9-1132 c0.2-40.9-32.5-74.5-73.4-75.5L681.4,906.5C635.7,905.4,598,942.2,598,988z" style="fill: rgb(102, 204, 194);"/>
    <path class="st7" d="M3154.8,2311.9C3154.8,2311.9,3154.8,2311.9,3154.8,2311.9l-2556.9-43.6c-2.1,0-3.7-1.7-3.7-3.8 c0-2.1,1.7-3.7,3.8-3.7l2556.9,43.6c2.1,0,3.7,1.7,3.7,3.8C3158.5,2310.3,3156.9,2311.9,3154.8,2311.9z" style="fill: rgb(125, 151, 244);"/>
    <path class="st5" d="M2416,2901.6h-965.8c-26.2,0-45.9-18.7-40.9-38.7l12.4-49c3.7-14.7,19.9-25.6,39.2-26.2l931.1-29.1 c20.1-0.6,37.9,10.1,42.3,25.4l22.3,78.1C2462.4,2882.3,2442.6,2901.6,2416,2901.6z" style="fill: rgb(7, 165, 153);"/>
    <g class="st8" style="opacity: 0.56;">
      <path class="st9" d="M1821.8,1195.8l-224.7-1.5c-4.3,0-7.8-3.5-7.8-7.7l0.2-30.3c0-4.2,3.6-7.6,7.9-7.6l224.7,1.5 c4.3,0,7.8,3.5,7.8,7.7l-0.2,30.3C1829.7,1192.4,1826.1,1195.8,1821.8,1195.8z" style="fill: rgb(255, 255, 255); opacity: 0.53;"/>
      <path class="st9" d="M2341.5,1199.2l-449.8-2.9c-6.9,0-12.4-5.5-12.4-12.2l0.2-21.2c0.1-6.7,5.7-12.1,12.6-12.1l449.8,2.9 c6.9,0,12.4,5.5,12.4,12.2l-0.2,21.2C2354,1193.8,2348.4,1199.2,2341.5,1199.2z" style="fill: rgb(255, 255, 255); opacity: 0.53;"/>
      <path class="st9" d="M1823.1,1275.9l-224.7-1.5c-4.3,0-7.8-3.5-7.8-7.7l0.2-30.3c0-4.2,3.6-7.6,7.9-7.6l224.7,1.5 c4.3,0,7.8,3.5,7.8,7.7l-0.2,30.3C1831,1272.6,1827.5,1276,1823.1,1275.9z" style="fill: rgb(255, 255, 255); opacity: 0.53;"/>
      <path class="st9" d="M2729.5,1281.8l-670.5-4.4c-6.9,0-12.4-5.5-12.4-12.2l0.2-21.2c0.1-6.7,5.7-12.1,12.6-12.1l670.5,4.4 c6.9,0,12.4,5.5,12.4,12.2l-0.2,21.2C2742.1,1276.5,2736.4,1281.9,2729.5,1281.8z" style="fill: rgb(255, 255, 255); opacity: 0.53;"/>
      <path class="st9" d="M1822.4,1356l-224.7-1.5c-4.3,0-7.8-3.5-7.8-7.7l0.2-30.3c0-4.2,3.6-7.6,7.9-7.6l224.7,1.5 c4.3,0,7.8,3.5,7.8,7.7l-0.2,30.3C1830.2,1352.6,1826.7,1356,1822.4,1356z" style="fill: rgb(255, 255, 255); opacity: 0.53;"/>
      <path class="st9" d="M3024.8,1363.8l-881.3-5.7c-6.9,0-12.4-5.5-12.4-12.2l0.2-21.2c0.1-6.7,5.7-12.1,12.6-12.1l881.3,5.7 c6.9,0,12.4,5.5,12.4,12.2l-0.2,21.2C3037.3,1358.4,3031.7,1363.8,3024.8,1363.8z" style="fill: rgb(255, 255, 255); opacity: 0.53;"/>
      <path class="st9" d="M1823.7,1436.1l-224.7-1.5c-4.3,0-7.8-3.5-7.8-7.7l0.2-30.3c0-4.2,3.6-7.6,7.9-7.6l224.7,1.5 c4.3,0,7.8,3.5,7.8,7.7l-0.2,30.3C1831.5,1432.7,1828,1436.1,1823.7,1436.1z" style="fill: rgb(255, 255, 255); opacity: 0.53;"/>
      <path class="st9" d="M3029,1444l-881.3-5.7c-6.9,0-12.4-5.5-12.4-12.2l0.2-21.2c0.1-6.7,5.7-12.1,12.6-12.1l881.3,5.7 c6.9,0,12.4,5.5,12.4,12.2l-0.2,21.2C3041.5,1438.6,3035.9,1444,3029,1444z" style="fill: rgb(255, 255, 255); opacity: 0.53;"/>
      <path class="st9" d="M1822.3,1519.3l-224.7-1.5c-4.3,0-7.8-3.5-7.8-7.7l0.2-30.3c0-4.2,3.6-7.6,7.9-7.6l224.7,1.5 c4.3,0,7.8,3.5,7.8,7.7l-0.2,30.3C1830.2,1515.9,1826.7,1519.3,1822.3,1519.3z" style="fill: rgb(255, 255, 255); opacity: 0.53;"/>
      <path class="st9" d="M3026.6,1527.1l-881.3-5.7c-6.9,0-12.4-5.5-12.4-12.2l0.2-21.2c0.1-6.7,5.7-12.1,12.6-12.1l881.3,5.7 c6.9,0,12.4,5.5,12.4,12.2l-0.2,21.2C3039.1,1521.7,3033.4,1527.1,3026.6,1527.1z" style="fill: rgb(255, 255, 255); opacity: 0.53;"/>
      <path class="st9" d="M1823.7,1599.4L1599,1598c-4.3,0-7.8-3.5-7.8-7.7l0.2-30.3c0-4.2,3.6-7.6,7.9-7.6l224.7,1.5 c4.3,0,7.8,3.5,7.8,7.7l-0.2,30.3C1831.5,1596.1,1828,1599.5,1823.7,1599.4z" style="fill: rgb(255, 255, 255); opacity: 0.53;"/>
      <path class="st9" d="M2418.9,1603.3l-530.3-3.4c-6.9,0-12.4-5.5-12.4-12.2l0.2-21.2c0.1-6.7,5.7-12.1,12.6-12.1l530.3,3.4 c6.9,0,12.4,5.5,12.4,12.2l-0.2,21.2C2431.4,1597.9,2425.8,1603.3,2418.9,1603.3z" style="fill: rgb(255, 255, 255); opacity: 0.53;"/>
      <path class="st9" d="M1822.9,1679.5l-224.7-1.5c-4.3,0-7.8-3.5-7.8-7.7l0.2-30.3c0-4.2,3.6-7.6,7.9-7.6l224.7,1.5 c4.3,0,7.8,3.5,7.8,7.7l-0.2,30.3C1830.7,1676.1,1827.2,1679.5,1822.9,1679.5z" style="fill: rgb(255, 255, 255); opacity: 0.53;"/>
      <path class="st9" d="M2680.4,1685l-667.3-4.3c-6.9,0-12.4-5.5-12.4-12.2l0.2-21.2c0.1-6.7,5.7-12.1,12.6-12.1l667.3,4.3 c6.9,0,12.4,5.5,12.4,12.2l-0.2,21.2C2692.9,1679.7,2687.3,1685.1,2680.4,1685z" style="fill: rgb(255, 255, 255); opacity: 0.53;"/>
      <path class="st9" d="M1824.2,1759.6l-224.7-1.5c-4.3,0-7.8-3.5-7.8-7.7l0.2-30.3c0-4.2,3.6-7.6,7.9-7.6l224.7,1.5 c4.3,0,7.8,3.5,7.8,7.7l-0.2,30.3C1832.1,1756.3,1828.5,1759.7,1824.2,1759.6z" style="fill: rgb(255, 255, 255); opacity: 0.53;"/>
      <path class="st9" d="M3030.7,1767.5l-912.1-5.9c-6.9,0-12.4-5.5-12.4-12.2l0.2-21.2c0.1-6.7,5.7-12.1,12.6-12.1l912.1,5.9 c6.9,0,12.4,5.5,12.4,12.2l-0.2,21.2C3043.2,1762.1,3037.6,1767.5,3030.7,1767.5z" style="fill: rgb(255, 255, 255); opacity: 0.53;"/>
      <path class="st9" d="M1818.2,1998.8l-224.7-1.5c-4.3,0-7.8-3.5-7.8-7.7l0.2-30.3c0-4.2,3.6-7.6,7.9-7.6l224.7,1.5 c4.3,0,7.8,3.5,7.8,7.7l-0.2,30.3C1826,1995.4,1822.5,1998.8,1818.2,1998.8z" style="fill: rgb(255, 255, 255); opacity: 0.53;"/>
      <path class="st9" d="M2413.4,2002.6l-530.3-3.4c-6.9,0-12.4-5.5-12.4-12.2l0.2-21.2c0.1-6.7,5.7-12.1,12.6-12.1l530.3,3.4 c6.9,0,12.4,5.5,12.4,12.2l-0.2,21.2C2425.9,1997.3,2420.3,2002.7,2413.4,2002.6z" style="fill: rgb(255, 255, 255); opacity: 0.53;"/>
      <path class="st9" d="M1817.4,2078.8l-224.7-1.5c-4.3,0-7.8-3.5-7.8-7.7l0.2-30.3c0-4.2,3.6-7.6,7.9-7.6l224.7,1.5 c4.3,0,7.8,3.5,7.8,7.7l-0.2,30.3C1825.3,2075.4,1821.7,2078.8,1817.4,2078.8z" style="fill: rgb(255, 255, 255); opacity: 0.53;"/>
      <path class="st9" d="M2674.6,2084.4l-667.3-4.3c-6.9,0-12.4-5.5-12.4-12.2l0.2-21.2c0.1-6.7,5.7-12.1,12.6-12.1l667.3,4.3 c6.9,0,12.4,5.5,12.4,12.2l-0.2,21.2C2687.1,2079,2681.5,2084.4,2674.6,2084.4z" style="fill: rgb(255, 255, 255); opacity: 0.53;"/>
      <path class="st9" d="M1818.7,2159l-224.7-1.5c-4.3,0-7.8-3.5-7.8-7.7l0.2-30.3c0-4.2,3.6-7.6,7.9-7.6l224.7,1.5 c4.3,0,7.8,3.5,7.8,7.7l-0.2,30.3C1826.6,2155.6,1823,2159,1818.7,2159z" style="fill: rgb(255, 255, 255); opacity: 0.53;"/>
      <path class="st9" d="M3024.9,2166.8l-912.1-5.9c-6.9,0-12.4-5.5-12.4-12.2l0.2-21.2c0.1-6.7,5.7-12.1,12.6-12.1l912.1,5.9 c6.9,0,12.4,5.5,12.4,12.2l-0.2,21.2C3037.4,2161.4,3031.8,2166.8,3024.9,2166.8z" style="fill: rgb(255, 255, 255); opacity: 0.53;"/>
      <path class="st9" d="M1820.8,1841.1l-224.7-1.5c-4.3,0-7.8-3.5-7.8-7.7l0.2-30.3c0-4.2,3.6-7.6,7.9-7.6l224.7,1.5 c4.3,0,7.8,3.5,7.8,7.7l-0.2,30.3C1828.6,1837.7,1825.1,1841.1,1820.8,1841.1z" style="fill: rgb(255, 255, 255); opacity: 0.53;"/>
      <path class="st9" d="M3022.9,1848.9l-912.1-5.9c-6.9,0-12.4-5.5-12.4-12.2l0.2-21.2c0.1-6.7,5.7-12.1,12.6-12.1l912.1,5.9 c6.9,0,12.4,5.5,12.4,12.2l-0.2,21.2C3035.5,1843.6,3029.8,1849,3022.9,1848.9z" style="fill: rgb(255, 255, 255); opacity: 0.53;"/>
      <path class="st9" d="M1822.1,1921.3l-224.7-1.5c-4.3,0-7.8-3.5-7.8-7.7l0.2-30.3c0-4.2,3.6-7.6,7.9-7.6l224.7,1.5 c4.3,0,7.8,3.5,7.8,7.7l-0.2,30.3C1830,1917.9,1826.4,1921.3,1822.1,1921.3z" style="fill: rgb(255, 255, 255); opacity: 0.53;"/>
      <path class="st9" d="M3027.3,1929.1l-912.1-5.9c-6.9,0-12.4-5.5-12.4-12.2l0.2-21.2c0.1-6.7,5.7-12.1,12.6-12.1l912.1,5.9 c6.9,0,12.4,5.5,12.4,12.2l-0.2,21.2C3039.8,1923.7,3034.2,1929.2,3027.3,1929.1z" style="fill: rgb(255, 255, 255); opacity: 0.53;"/>
      <path class="st10" d="M1484,1642.5H718.4c-29.9,0-54.1-10.4-54.1-23.3v-484.1c0-13,24.8-23.5,55.1-23.3l768.7,6.2 c29.5,0.2,53.1,10.6,53,23.3l-3,477.9C1538,1632.1,1513.8,1642.5,1484,1642.5z" style="fill: rgb(255, 255, 255); opacity: 0.35;"/>
      <path class="st10" d="M1480.7,2206.2H715.1c-29.9,0-54.1-10.4-54.1-23.3v-484.1c0-13,24.8-23.5,55.1-23.3l768.7,6.2 c29.5,0.2,53.1,10.6,53,23.3l-3,477.9C1534.7,2195.8,1510.5,2206.2,1480.7,2206.2z" style="fill: rgb(255, 255, 255); opacity: 0.35;"/>
    </g>
    <path class="st11" d="M3141,1074.4l0.2-44.2c0.2-40.9-32.5-74.5-73.4-75.5L681.5,906.5c-45.8-1.1-83.4,35.7-83.4,81.5v86.4H3141z" style="fill: rgb(18, 91, 84);"/>
    <circle class="st7" cx="717.2" cy="994.9" r="39.7" style="fill: rgb(125, 151, 244);"/>
    <circle class="st7" cx="958.8" cy="994.9" r="39.7" style="fill: rgb(125, 151, 244);"/>
    <circle class="st7" cx="836.4" cy="994.9" r="39.7" style="fill: rgb(125, 151, 244);"/>
    <g>
      <path class="st12" d="M946.4,3206.8c-3.7,0-6.7-1.9-6.7-4.2v-497.4c0-2.3,3-4.2,6.7-4.2c3.7,0,6.7,1.9,6.7,4.2v497.4 C953.1,3204.9,950.1,3206.8,946.4,3206.8z" style="fill: rgb(13, 73, 63);"/>
      <path class="st12" d="M738.3,3206.8c-3.7,0-6.7-1.9-6.7-4.2v-497.4c0-2.3,3-4.2,6.7-4.2c3.7,0,6.7,1.9,6.7,4.2v497.4 C745,3204.9,742,3206.8,738.3,3206.8z" style="fill: rgb(13, 73, 63);"/>
      <path class="st12" d="M502.1,3206.9c-1.4,3.4,0.1,7.3,3.5,8.8c0.9,0.4,1.7,0.5,2.6,0.5c2.6,0,5.1-1.5,6.2-4.1l217.3-511.1 c-4.7-0.2-9.3-0.7-14-1.4L502.1,3206.9z" style="fill: rgb(13, 73, 63);"/>
      <path class="st12" d="M713.8,3206.9c-1.4,3.4,0.1,7.3,3.5,8.8c0.9,0.4,1.7,0.5,2.6,0.5c2.6,0,5.1-1.5,6.2-4.1l219.1-515.5 c-4.7-0.3-9.5-0.6-14.2-0.8L713.8,3206.9z" style="fill: rgb(13, 73, 63);"/>
      <path class="st12" d="M970.3,2711.7H520.1c-4.6,0-8.4-3.8-8.4-8.4l0,0c0-4.6,3.8-8.4,8.4-8.4h450.2c4.6,0,8.4,3.8,8.4,8.4l0,0 C978.7,2708,974.9,2711.7,970.3,2711.7z" style="fill: rgb(13, 73, 63);"/>
      <rect x="665.4" y="2833.1" class="st12" width="212.3" height="13.4" style="fill: rgb(13, 73, 63);"/>
      <path class="st12" d="M821.5,2979.2H609.2c-3.7,0-6.7-3-6.7-6.7s3-6.7,6.7-6.7h212.3c3.7,0,6.7,3,6.7,6.7 S825.2,2979.2,821.5,2979.2z" style="fill: rgb(13, 73, 63);"/>
      <path class="st12" d="M764.2,3108.5H551.8c-3.7,0-6.7-3-6.7-6.7c0-3.7,3-6.7,6.7-6.7h212.3c3.7,0,6.7,3,6.7,6.7 C770.9,3105.5,767.9,3108.5,764.2,3108.5z" style="fill: rgb(13, 73, 63);"/>
    </g>
    <path class="st12" d="M2502.3,3059.5c0,0,2.9,16.1,4.1,35.3c0.5,8.2-5.6,15.2-13.7,16c-28.3,2.7-92.8,7.8-134,1.9 c-5.8-0.8-8.1-7.9-3.8-11.9c17-15.8,58-46.6,125.4-53.3L2502.3,3059.5z" style="fill: rgb(13, 73, 63);"/>
    <linearGradient id="SVGID_1_" gradientUnits="userSpaceOnUse" x1="-344.0634" y1="3075.0225" x2="-356.911" y2="2974.5789" gradientTransform="matrix(-1 0 0 1 2142.803 0)">
      <stop offset="0" style="stop-color:#FEBBBA"/>
      <stop offset="1" style="stop-color:#FF928E"/>
    </linearGradient>
    <path class="st13" d="M2516.4,3023.2l-14.3,35.1c-2,4.8-6.8,7.8-12,7.3c-3.5-0.4-7.7-1-11.7-2.3c-8.1-2.5-12.6-11-10.2-19.1 l10.8-36.2L2516.4,3023.2z" style="fill: url(#SVGID_1_);"/>
    <path class="st12" d="M2761.2,3087.5c0,0-28.7,24-39.8,54.8c-3.1,8.5,3.4,17.4,12.4,17.4h59c8.6,0,15.3-7.8,13.8-16.3 C2802.8,3122.1,2792,3087.6,2761.2,3087.5z" style="fill: rgb(13, 73, 63);"/>
    <linearGradient id="SVGID_2_" gradientUnits="userSpaceOnUse" x1="-624.8638" y1="3109.4478" x2="-637.3834" y2="3011.5676" gradientTransform="matrix(-1 0 0 1 2142.803 0)">
      <stop offset="0" style="stop-color:#FEBBBA"/>
      <stop offset="1" style="stop-color:#FF928E"/>
    </linearGradient>
    <path class="st14" d="M2796.7,3056.2c0,0-5.8,25.6-10.2,42.6c-0.8,3.1-4.1,4.8-7.1,3.7c-8.9-3.2-16.2-4.6-21.5-3.9 c-2.4,0.3-4.6-1.7-4.6-4.2l-0.6-42.6L2796.7,3056.2z" style="fill: url(#SVGID_2_);"/>
    <path class="st15" d="M2644.2,2479.4l-174.4,532.1c0,0,33.5,21.9,49.4,21l207.2-427.6c0,0,36.3,263.5,18.7,452.7l59.3,4.5 c0,0,96.5-483.4,23.4-649L2644.2,2479.4z" style="fill: rgb(15, 109, 100);"/>
    <linearGradient id="SVGID_3_" gradientUnits="userSpaceOnUse" x1="-632.4249" y1="2678.3982" x2="-618.4092" y2="2650.3672" gradientTransform="matrix(-1 0 0 1 2142.803 0)">
      <stop offset="0" style="stop-color:#4F52FF"/>
      <stop offset="1" style="stop-color:#4042E2"/>
    </linearGradient>
    <path class="st16" d="M2725.3,2600.2c0.1,0,0.1,0,0.2,0c0.9-0.1,1.6-1,1.5-1.9l-6.8-53.7c-0.1-0.9-1-1.6-1.9-1.5 c-0.9,0.1-1.6,1-1.5,1.9l6.8,53.7C2723.7,2599.6,2724.4,2600.2,2725.3,2600.2z" style="fill: url(#SVGID_3_);"/>
    <linearGradient id="SVGID_4_" gradientUnits="userSpaceOnUse" x1="2976.7092" y1="1754.5616" x2="2884.0471" y2="1906.7924">
      <stop offset="0" style="stop-color:#FF928E"/>
      <stop offset="1" style="stop-color:#FE7062"/>
    </linearGradient>
    <path class="st17" d="M2611.5,2011.1c0,0,141.3,12.5,121.3,113.2c0,0,78.1,147,114.6,320.2c1.2,5.6-2.6,11.1-8.3,12.1l-235.3,40.3 c-6.5,1.1-12.8-2.9-14.4-9.3l-56.2-217.3l-21.9,101l-69.6-18.1l58.6-296.9C2500.3,2056.3,2508.5,2013,2611.5,2011.1z" style="fill: url(#SVGID_4_);"/>
    <linearGradient id="SVGID_5_" gradientUnits="userSpaceOnUse" x1="2712.8818" y1="1993.0646" x2="2650.0037" y2="2065.8706">
      <stop offset="0" style="stop-color:#E1473D"/>
      <stop offset="1" style="stop-color:#E9605A"/>
    </linearGradient>
    <path class="st18" d="M2532.1,2260.6c0.1,0,0.2,0,0.4,0c0.9-0.2,1.5-1.1,1.3-2.1l-19.6-90.1c-0.2-0.9-1.1-1.5-2.1-1.3 c-0.9,0.2-1.5,1.1-1.3,2.1l19.6,90.1C2530.5,2260,2531.3,2260.6,2532.1,2260.6z" style="fill: url(#SVGID_5_);"/>
    <linearGradient id="SVGID_6_" gradientUnits="userSpaceOnUse" x1="-530.2399" y1="2466.584" x2="-354.7718" y2="2466.584" gradientTransform="matrix(-1 0 0 1 2142.803 0)">
      <stop offset="0" style="stop-color:#FEBBBA"/>
      <stop offset="1" style="stop-color:#FF928E"/>
    </linearGradient>
    <path class="st19" d="M2546.3,2528.6c7.4-4.1,16.1-5.2,24.3-3.2l16.4,4.1c3.5,0.9,6.9-1.5,7.3-5.1l16.9-150.8 c21.2,10.1,51.8,8.9,61.8,8.1l-39,177.8h-136.5L2546.3,2528.6z" style="fill: url(#SVGID_6_);"/>
    <linearGradient id="SVGID_7_" gradientUnits="userSpaceOnUse" x1="-368.5418" y1="2246.6243" x2="-40.8628" y2="2246.6243" gradientTransform="matrix(-1 0 0 1 2142.803 0)">
      <stop offset="0" style="stop-color:#FEBBBA"/>
      <stop offset="1" style="stop-color:#FF928E"/>
    </linearGradient>
    <path class="st20" d="M2183.7,2201.5l4.1-13.7c2.4-7.9,8.2-14.3,15.8-17.3l74.6-30c0,0,1.1-9.6-15.8-16.1 c-16.9-6.5-12.9-25.4-12.9-25.4s23.1,10.5,56.9,27.2c19.3,9.5,30.2,26.4,35.9,39.1l169,206.1l-19.8,13.6 c-26.1,17.9-62,9.1-76.8-18.9l-91.6-175.6C2277.1,2204.3,2230.6,2207,2183.7,2201.5z" style="fill: url(#SVGID_7_);"/>
    <linearGradient id="SVGID_8_" gradientUnits="userSpaceOnUse" x1="-486.5116" y1="2062.8403" x2="-372.4716" y2="1945.8384" gradientTransform="matrix(-1 0 0 1 2142.803 0)">
      <stop offset="0" style="stop-color:#FEBBBA"/>
      <stop offset="1" style="stop-color:#FF928E"/>
    </linearGradient>
    <path class="st21" d="M2565.7,1915l43.5,121.6c0,0-38.5,30.1-66.6,19.9l-21.9-69.7C2520.7,1986.8,2537.5,1901.6,2565.7,1915z" style="fill: url(#SVGID_8_);"/>
    <linearGradient id="SVGID_9_" gradientUnits="userSpaceOnUse" x1="-321.1252" y1="1872.1206" x2="-463.3046" y2="2060.2124" gradientTransform="matrix(-1 0 0 1 2142.803 0)">
      <stop offset="0" style="stop-color:#FEBBBA"/>
      <stop offset="1" style="stop-color:#FF928E"/>
    </linearGradient>
    <path class="st22" d="M2436,1871.3c0,1.9,41.9,118.5,41.9,118.5l66.1-25.3l-23.3-116.5C2520.7,1848,2436,1839.9,2436,1871.3z" style="fill: url(#SVGID_9_);"/>
    <path class="st23" d="M2509.1,1876.4l17,60.3c0.2,0.8,0.3,1.6,0.3,2.4c0,4.9-1.2,21.9-18.5,19.6c-15.7-2.1-30-3.8-39.1,0.5 c-4.1,1.9-6,6.6-4.5,10.9c3.8,10.6,12.8,34.3,23.8,53.7c2.2,3.9,7.1,5.5,11.2,3.6c12.4-5.6,38.3-18.3,56.7-33.3 c2.5-2,3.7-5.2,3.1-8.4c-2.9-15.4-11.5-62.4-11.9-75.8c-0.4-12.6,13.8-22.3,20.1-25.9c2-1.2,3.5-3.1,4.1-5.4 c2-8.1,3.6-26.5-19.8-30.6c-4.9-0.8-8.1-5.5-7.1-10.4c2-9.7,1.4-24-17.1-29.3c-18.8-5.4-30.6,5.9-36.6,14.6 c-2.4,3.5-7,4.6-10.9,2.9c-2.2-1-4.9-1-7.8,1.4c-3.9,3.3-9.8,2.3-12.6-1.9c-5.5-8.1-15.4-16.1-32.2-10.6 c-29.9,9.7-28.4,44.1-17.5,62.8c10.9,18.7,42.7,6.4,57.8-6c11.4-9.4,28.9-3.8,36.5-0.5C2506.6,1871.8,2508.4,1873.9,2509.1,1876.4z " style="fill: rgb(12, 96, 88);"/>
    <linearGradient id="SVGID_10_" gradientUnits="userSpaceOnUse" x1="-529.3617" y1="2021.0736" x2="-415.323" y2="1904.073" gradientTransform="matrix(-1 0 0 1 2142.803 0)">
      <stop offset="0" style="stop-color:#FEBBBA"/>
      <stop offset="1" style="stop-color:#FF928E"/>
    </linearGradient>
    <path class="st24" d="M2553.4,1931.9c0,0-17.7-33.4-6-43.9c11.7-10.5,31.5-8.8,31,17.4C2577.7,1937.8,2553.4,1931.9,2553.4,1931.9z " style="fill: url(#SVGID_10_);"/>
    <linearGradient id="SVGID_11_" gradientUnits="userSpaceOnUse" x1="2833.3079" y1="1954.7169" x2="2773.7395" y2="2058.9617">
      <stop offset="0" style="stop-color:#E1473D"/>
      <stop offset="1" style="stop-color:#E9605A"/>
    </linearGradient>
    <path class="st25" d="M2659.3,2384c9.6,0,16.5-0.7,17.3-0.8l1.3-0.1l51.5-239.9c0.2-0.9-0.4-1.9-1.3-2.1c-1-0.2-1.9,0.4-2.1,1.3 l-50.9,237.4c-7.7,0.7-48.6,3.4-70.1-11.9l44.6-208.4l-9.3-17.5c-0.5-0.9-1.5-1.2-2.4-0.7c-0.9,0.5-1.2,1.5-0.7,2.4l8.7,16.4 l-44.8,209.4l0.9,0.7C2617.4,2381.8,2642.5,2384,2659.3,2384z" style="fill: url(#SVGID_11_);"/>
    <g>
      <path class="st12" d="M2592.7,3180.2c1.3,0,2.7-0.3,4-0.9c5.1-2.4,7.5-8.9,5.3-14.5l-212.5-539.2c-2.2-5.6-8.2-8.2-13.3-5.8 c-5.1,2.4-7.5,8.9-5.3,14.5l212.5,539.2C2585.1,3177.7,2588.8,3180.2,2592.7,3180.2z" style="fill: rgb(13, 73, 63);"/>
      <path class="st12" d="M2353.3,3180.2c3.9,0,7.7-2.5,9.3-6.7l212.5-539.2c2.2-5.6-0.2-12.1-5.3-14.5c-5.1-2.4-11.1,0.2-13.3,5.8 L2344,3164.7c-2.2,5.6,0.2,12.1,5.3,14.5C2350.6,3179.9,2352,3180.2,2353.3,3180.2z" style="fill: rgb(13, 73, 63);"/>
      <path class="st12" d="M1688.1,3180.2c1.3,0,2.7-0.3,4-0.9c5.1-2.4,7.5-8.9,5.3-14.5l-212.5-539.2c-2.2-5.6-8.2-8.2-13.3-5.8 c-5.1,2.4-7.5,8.9-5.3,14.5l212.5,539.2C1680.4,3177.7,1684.2,3180.2,1688.1,3180.2z" style="fill: rgb(13, 73, 63);"/>
      <path class="st12" d="M1448.7,3180.2c3.9,0,7.7-2.5,9.3-6.7l212.5-539.2c2.2-5.6-0.2-12.1-5.3-14.5c-5.1-2.4-11.1,0.2-13.3,5.8 l-212.5,539.2c-2.2,5.6,0.2,12.1,5.3,14.5C1446,3179.9,1447.4,3180.2,1448.7,3180.2z" style="fill: rgb(13, 73, 63);"/>
    </g>
    <g>
      <rect x="1805.5" y="2816.8" class="st12" width="25.1" height="271.7" style="fill: rgb(13, 73, 63);"/>
      <path class="st12" d="M1708,3093.8h220.1v-7.3c0-5-4.1-9.1-9.1-9.1h-202c-5,0-9.1,4.1-9.1,9.1V3093.8z" style="fill: rgb(13, 73, 63);"/>
      <path class="st12" d="M1675.4,2807.4c0,14.9,12.2,27,27,27h222.7c14.9,0,27-12.2,27-27v-24.4c0-14.9-12.2-27-27-27h-222.7 c-14.9,0-27,12.2-27,27V2807.4z" style="fill: rgb(13, 73, 63);"/>
    </g>
    <linearGradient id="SVGID_12_" gradientUnits="userSpaceOnUse" x1="2378.3018" y1="2550.1619" x2="1901.7539" y2="2956.1104">
      <stop offset="0" style="stop-color:#FEBBBA"/>
      <stop offset="1" style="stop-color:#FF928E"/>
    </linearGradient>
    <path class="st26" d="M2003.6,2635.6c0,0,37.3,5.8,79.3,33.9c6.6,4.4,10.2,12.1,9.2,20c-5,39.8-25.7,168.7-93.9,294.6 c-3.6,6.6-4.6,14.4-3,21.7l11.8,55.1l22,20.6h-56.6l-37.7-101.9l16.1-5.1c12.5-3.9,21.1-15.4,21.3-28.5l1.9-109.3 c-1.6-48.7,29.9-82.3,29.9-82.3l-90.3-4.4L2003.6,2635.6z" style="fill: url(#SVGID_12_);"/>
    <path class="st12" d="M2051.1,3091.4c5.2,6.7-55.4,15.6-86.1,0.9c0,0-42.4-73.8-42.4-111.8c0,0,3.4-7.8,28.3-6 c0,0,14.2,87.4,29.3,97.2c15,9.8,42.1,1,42.1,1S2043.5,3081.5,2051.1,3091.4z" style="fill: rgb(13, 73, 63);"/>
    <linearGradient id="SVGID_13_" gradientUnits="userSpaceOnUse" x1="2097.2891" y1="2868.2781" x2="2443.6685" y2="3066.8394">
      <stop offset="0" style="stop-color:#FEBBBA"/>
      <stop offset="1" style="stop-color:#FF928E"/>
    </linearGradient>
    <path class="st27" d="M1925.1,2755.9c0.5-0.8,97.3-11.6,97.3-11.6s-3.2,29.4,6.7,69.9c9.9,40.5,152,216,152,216l-14.9,47.2 c46.1,16,91.4,18.6,136,8.2l-92.3-55.4c0,0-86.4-294.5-139.3-347l-97-33.6L1925.1,2755.9z" style="fill: url(#SVGID_13_);"/>
    <linearGradient id="SVGID_14_" gradientUnits="userSpaceOnUse" x1="2060.4246" y1="2239.6375" x2="2029.5371" y2="2305.8245">
      <stop offset="0" style="stop-color:#E1473D"/>
      <stop offset="1" style="stop-color:#E9605A"/>
    </linearGradient>
    <path class="st28" d="M1708,2584.6c0,0-55.8,82.9-60.3,120.8c-4.6,37.8,15.3,53.2,73.8,55.7c58.5,2.5,214.7,2.5,214.7,2.5 l133.3-113.9c0,0-97.1-34.7-122.4-44.5C1921.8,2595.4,1708,2584.6,1708,2584.6z" style="fill: url(#SVGID_14_);"/>
    <path class="st12" d="M2171.7,3061.5c0,0-16,15.5-5.2,32.8c0,0,127.1,22.5,161.6,12.3c0,0-7.2-16.3-46-35l2.9,2.2 c3.6,2.8,1.5,8.6-3.1,8.3C2256.3,3080.7,2203.3,3076,2171.7,3061.5z" style="fill: rgb(13, 73, 63);"/>
    <g>
      <linearGradient id="SVGID_15_" gradientUnits="userSpaceOnUse" x1="1864.8317" y1="2193.3596" x2="2132.8901" y2="1921.9921">
        <stop offset="0" style="stop-color:#E1473D"/>
        <stop offset="1" style="stop-color:#E9605A"/>
      </linearGradient>
      <path class="st29" d="M1820.7,2118.7c-8.4,2.6-38.8,13.5-34.9,33.1c0.5,2.6-1.9,4.8-4.5,4.1c-13.1-3.5-42-8-59.9,14.5 c-15.8,19.8-4,38.5,5.6,48.8c2.3,2.5,0.4,6.5-3,6.1c-24.1-3-76.3-3.8-84.9,45.2c-8,45.7,23.8,58.5,42.7,62.2 c3.2,0.6,3.9,4.8,1.2,6.5c-9.4,6-20.3,18.3-15.9,42.6c6.9,38.1,81.7,35,90.4,34.5c0.6,0,1.1-0.2,1.6-0.5l119.7-68.3 c0.9-0.5,1.6-1.5,1.8-2.5l24.2-139.6c0.2-1.1-0.2-2.3-1-3.1l-79.5-82.6C1823.4,2118.7,1822,2118.3,1820.7,2118.7z" style="fill: url(#SVGID_15_);"/>
      <linearGradient id="SVGID_16_" gradientUnits="userSpaceOnUse" x1="259.377" y1="2324.3257" x2="459.7126" y2="2760.3496" gradientTransform="matrix(-1 0 0 1 2142.803 0)">
        <stop offset="0" style="stop-color:#FF928E"/>
        <stop offset="1" style="stop-color:#FE7062"/>
      </linearGradient>
      <path class="st30" d="M1858.8,2573.6c0,0,64.9-61.8,96.9-102.8c17.3-22.1,22.7-51.3,14.7-78.2c-14.6-49.2-40.5-100.1-42.9-108 c-3.6-12.1-76.4-11.6-76.4-11.6s-143.3,93-199.5,250.5l63.2,19.7c0,0,37.4-62.8,74.4-102.6c0,0-63.9,84.5-66.2,119.1 L1858.8,2573.6z" style="fill: url(#SVGID_16_);"/>
      <linearGradient id="SVGID_17_" gradientUnits="userSpaceOnUse" x1="264.2054" y1="2353.2837" x2="245.3474" y2="2232.2788" gradientTransform="matrix(-1 0 0 1 2142.803 0)">
        <stop offset="0" style="stop-color:#FEBBBA"/>
        <stop offset="1" style="stop-color:#FF928E"/>
      </linearGradient>
      <path class="st31" d="M1936.3,2216.7c-0.8,2.5-19.8,65.5-21.2,66.8c-1.5,1.3-41.7,3.5-60.6-9.5l32.1-67.2L1936.3,2216.7z" style="fill: url(#SVGID_17_);"/>
      <g>
        <linearGradient id="SVGID_18_" gradientUnits="userSpaceOnUse" x1="182.6976" y1="2125.2383" x2="349.2757" y2="2238.3855" gradientTransform="matrix(-1 0 0 1 2142.803 0)">
          <stop offset="0" style="stop-color:#FEBBBA"/>
          <stop offset="1" style="stop-color:#FF928E"/>
        </linearGradient>
        <path class="st32" d="M1905.1,2084.4c0,0,34.3,14.5,57.6,64.1s5.9,72.5-16,75.6c-21.9,3.1-54.6,2.7-89.2-29.4 C1823,2162.7,1860.5,2067.3,1905.1,2084.4z" style="fill: url(#SVGID_18_);"/>
        <linearGradient id="SVGID_19_" gradientUnits="userSpaceOnUse" x1="1828.1178" y1="2157.0935" x2="2096.176" y2="1885.7258">
          <stop offset="0" style="stop-color:#E1473D"/>
          <stop offset="1" style="stop-color:#E9605A"/>
        </linearGradient>
        <path class="st33" d="M1880.8,2168.3c0,0-25.9-72.5,38.4-73.4l15.1,10.6c0,0,23.6-40.2-15.1-59.4s-84-3.3-100.5,48.8 c-16.5,52.2-19.3,87.1,8.1,112c27.4,25,38.7-3.3,38.7-3.3s-14.9-23.3-8.9-35.8c6.1-12.5,20.1,2.6,20.1,2.6L1880.8,2168.3z" style="fill: url(#SVGID_19_);"/>
        <linearGradient id="SVGID_20_" gradientUnits="userSpaceOnUse" x1="169.9198" y1="2103.5042" x2="362.8091" y2="2234.5232" gradientTransform="matrix(-1 0 0 1 2142.803 0)">
          <stop offset="0" style="stop-color:#FEBBBA"/>
          <stop offset="1" style="stop-color:#FF928E"/>
        </linearGradient>
        <path class="st34" d="M1883.5,2178c0,0-12.7-36.9-30.5-22.5c-23.2,18.8,10.6,37,26.6,40.9L1883.5,2178z" style="fill: url(#SVGID_20_);"/>
      </g>
      <linearGradient id="SVGID_21_" gradientUnits="userSpaceOnUse" x1="372.4681" y1="2562.8035" x2="726.6352" y2="2562.8035" gradientTransform="matrix(-1 0 0 1 2142.803 0)">
        <stop offset="0" style="stop-color:#FEBBBA"/>
        <stop offset="1" style="stop-color:#FF928E"/>
      </linearGradient>
      <path class="st35" d="M1991.1,2578.2l-47.7-46l-66,27.9c0,0-65.7,10.2-103.3,0c-37.6-10.2-37.6-10.2-37.6-10.2l-85-26.4 l-13.3,37.7c-3.4,9.6,0,20.2,8.3,26.1c7.3,5.2,16,11,21.5,13.4c11.2,4.9,275.8-3.4,275.8-3.4L1991.1,2578.2z" style="fill: url(#SVGID_21_);"/>
    </g>
    <path class="st36" d="M1810.6,2599.9c0.2,0,0.4,0,0.6,0l276.7-0.3c6.8,0,12.4-5.6,12.4-12.4c0-6.8-5.6-12.5-12.4-12.4l-276.7,0.3 c-6.8,0-12.4,5.6-12.4,12.4C1798.8,2594.1,1804,2599.5,1810.6,2599.9z" style="fill: rgb(14, 86, 79);"/>
    <path class="st37" d="M2336.7,2348.6h-230.5c-17,0-32.5,9.8-39.7,25.2l-106.5,225.9h286.4c11,0,20.8-6.7,24.8-16.9l82.6-209 C2358.6,2361.7,2349.7,2348.6,2336.7,2348.6z" style="fill: rgb(12, 109, 100);"/>
    <path class="st7" d="M2174.3,2464.4c-5,15.5-1.3,30.6,8.2,33.7c9.5,3.1,21.3-7,26.3-22.5s1.3-30.6-8.2-33.7 C2191.1,2438.8,2179.3,2448.9,2174.3,2464.4z" style="fill: rgb(125, 151, 244);"/>
    <g>
      <path class="st0" d="M2365.5,2591l272.3,0v-28.1l-272.3,0C2371.4,2562.9,2371.4,2591,2365.5,2591z" style="fill: rgb(145, 179, 250);"/>
      <linearGradient id="SVGID_22_" gradientUnits="userSpaceOnUse" x1="2547.9116" y1="2119.3623" x2="2530.3315" y2="2336.9163">
        <stop offset="0" style="stop-color:#E1473D"/>
        <stop offset="1" style="stop-color:#E9605A"/>
      </linearGradient>
      <path class="st38" d="M2634.6,2591c1.8,0,3.3-1.5,3.3-3.3v-21.5c0-1.8-1.5-3.3-3.3-3.3h-274c-1.8,0-3.3-1.4-3.3-3.2 c0-1.7,1.5-3.2,3.3-3.2h292.9c6.5,0,11.8,5.3,11.8,11.8v18c0,6.1-5,11.1-11.1,11.1h-293.6c-1.8,0-3.3-1.4-3.3-3.2s1.5-3.2,3.3-3.2 H2634.6z" style="fill: url(#SVGID_22_);"/>
    </g>
    <path class="st12" d="M1423.8,2610c-0.7-3.1,0.3-6.4,2.6-8.8c2.3-2.5,5.8-3.9,9.5-3.9h1246.3c4.8,0,9.3,2.1,11.9,5.7 c2.6,3.5,3,8,0.9,11.8l-13.5,25.4c-3.1,5.8-9.8,9.5-17.2,9.5h-1220c-6.9,0-12.8-4.2-14.1-10.1L1423.8,2610z" style="fill: rgb(13, 73, 63);"/>
    <g>
      <linearGradient id="SVGID_23_" gradientUnits="userSpaceOnUse" x1="-42.4978" y1="1536.5873" x2="100.5025" y2="1861.9453" gradientTransform="matrix(-1 0 0 1 1002.0518 0)">
        <stop offset="0" style="stop-color:#FEBBBA"/>
        <stop offset="1" style="stop-color:#FF928E"/>
      </linearGradient>
      <path class="st39" d="M1110.5,1434.4c0,0-74.2,202.4-200.7,265.6c0,0,42.1,68.7,64.1,72.9c0,0,135.1-172.9,148.9-314.6 L1110.5,1434.4z" style="fill: url(#SVGID_23_);"/>
      <g>
        <linearGradient id="SVGID_24_" gradientUnits="userSpaceOnUse" x1="-80.9536" y1="1525.8046" x2="17.8135" y2="1750.5221" gradientTransform="matrix(-1 0 0 1 1002.0518 0)">
          <stop offset="0" style="stop-color:#FEBBBA"/>
          <stop offset="1" style="stop-color:#FF928E"/>
        </linearGradient>
        <path class="st40" d="M1117.7,1471.2c1.1,3.6-12,9.1-19.7-5.6c-0.3-7.1-4.6-37.3-0.3-43c22.5-30.6,46.2-32.6,46.2-32.6 c4.4,8,9.8,14.7,12.3,24.4c1.9,7.3,0.7,15.1-3,21.8c-3.7,6.7-8.8,15.4-13.6,22.2C1130.6,1471.2,1117.7,1471.2,1117.7,1471.2z" style="fill: url(#SVGID_24_);"/>
      </g>
    </g>
    <path class="st41" d="M886.1,1764.7l513.5-7.4c13.6-0.2,24.5-11.4,24.3-25l-7.4-518.8c-0.2-13.6-11.4-24.5-25-24.3l-513.5,7.4 c-13.6,0.2-24.5,11.4-24.3,25l7.4,518.8C861.3,1754,872.5,1764.9,886.1,1764.7z" style="fill: rgb(22, 145, 130);"/>
    <g>
      <path class="st3" d="M909.2,1617.4l104.8-151c1.1-1.5,2.9-2.5,4.9-2.5c2,0,3.9,0.8,5,2.3l65.7,86.1l102.8-145.8 c1.1-1.6,3-2.6,5.1-2.6c2.1-0.1,4.1,0.8,5.2,2.3l164.1,210c1.3,1.7,1.5,4.6,0.4,6.5c-1.1,1.8-3.2,3.7-5.6,3.7l-216.4,0.3 l-107.2,0.1l-123.9,0.1c-2.1,0-4.2-1.8-5.2-3.5C908,1621.8,908,1619,909.2,1617.4z" style="fill: rgb(255, 255, 255);"/>
      <path class="st3" d="M982.8,1372.7c0.6,25.4,22.2,45.5,48.3,44.8c26.3-0.6,47.2-22,46.6-47.6s-22.5-45.7-48.8-44.8 C1002.8,1326,982.2,1347.3,982.8,1372.7z" style="fill: rgb(255, 255, 255);"/>
    </g>
    <path class="st42" d="M839,1528.9c0,0-26.1,12.7-30.9,27.3c-3.8,11.7-32.7,13.2-35.6,36.2c-1.5,11.9-10.3,21.4-22.1,23.2 c-29.5,4.5-74.9,19.8-82.2,71c-5.5,39.1,14.4,53.9,35.3,59c15.3,3.8,25.5,18.7,22.4,34.2c-3,14.9,1.5,32,27.2,45.6 c57.7,30.4,115.3-72.1,115.3-72.1l11.8-179.1L839,1528.9z" style="fill: rgb(11, 124, 113);"/>
    <path class="st43" d="M601.8,2651.7l-3.7,30.7c-0.7,5.8-5.3,10.4-11.1,11.1c-9.8,1.1-25.6,2.3-41.1,0.6c-6.8-0.7-11.2-7.6-9.1-14.1 c3.8-11.8,10.7-29.6,20.6-40.1h34C597.7,2640,602.6,2645.5,601.8,2651.7z" style="fill: rgb(7, 43, 38);"/>
    <linearGradient id="SVGID_25_" gradientUnits="userSpaceOnUse" x1="122.8086" y1="2926.3057" x2="217.2625" y2="1822.3749" gradientTransform="matrix(-1 0 0 1 1002.0518 0)">
      <stop offset="0" style="stop-color:#FEBBBA"/>
      <stop offset="1" style="stop-color:#FF928E"/>
    </linearGradient>
    <path class="st44" d="M868.5,2292.2l5.7,33.8c0,0-19.2,194.9-22.7,272.9c-0.5,12.2,2.6,24.3,9,34.7l33.5,54.3l-85-50.2l-1.7-10.4 l13.9-19.1L803,2389.9c-1.1-12.8,1.6-25.7,7.6-37.1l17.6-33L868.5,2292.2z" style="fill: url(#SVGID_25_);"/>
    <path class="st43" d="M899.7,2695.8h-27.1c-5.1,0-9.9-2.3-13-6.4c-8.5-11-26-32.4-34.4-33c-11.3-0.8-9.8,39.4-9.8,39.4H809l-8-49.8 c-2-12.5,4.2-25,15.5-30.8l0,0c0,0,2.6,19.1,16.6,27.5c14,8.4,56.9,38.7,56.9,38.7s5.3-0.7,11,0.3 C909.6,2683.2,908.4,2695.8,899.7,2695.8z" style="fill: rgb(7, 43, 38);"/>
    <linearGradient id="SVGID_26_" gradientUnits="userSpaceOnUse" x1="312.8086" y1="2942.7317" x2="407.2874" y2="1838.5099" gradientTransform="matrix(-1 0 0 1 1002.0518 0)">
      <stop offset="0" style="stop-color:#FEBBBA"/>
      <stop offset="1" style="stop-color:#FF928E"/>
    </linearGradient>
    <path class="st45" d="M752,2308.3c0,0-112.7,213.8-130.7,262.7c-17.9,48.8-24.2,89.6-24.4,93.4c-0.4,6-7.9,11.8-28.5,11.8 c-10.7,0-15.9-4.3-18.4-8.4c-2.2-3.5-2.3-7.9-0.5-11.7c6.5-13.2,27.2-55.4,34.9-74.5c9.2-22.8,28.8-126.3,39.6-162.3 c10.8-36,23-75,70-111C694,2308.3,726.3,2276.7,752,2308.3z" style="fill: url(#SVGID_26_);"/>
    <linearGradient id="SVGID_27_" gradientUnits="userSpaceOnUse" x1="1416.8888" y1="1558.1362" x2="1244.802" y2="1650.7985">
      <stop offset="0" style="stop-color:#FF928E"/>
      <stop offset="1" style="stop-color:#FE7062"/>
    </linearGradient>
    <path class="st46" d="M823.2,1957.9c29.1-123.2-44.6-192.9-44.6-192.9c46.5-44.6,131.2-64.9,131.2-64.9s80.8,59.1,71.2,105.3 c-5.6,27.1-56.8,162.4-56.8,162.4S876.9,1990.1,823.2,1957.9z" style="fill: url(#SVGID_27_);"/>
    <path class="st47" d="M758.7,2018.9c11.8-35.7,64.5-61,64.5-61c53.7,32.2,101,9.8,101,9.8s10.6,40.6,3.3,78.3 c-7.3,37.7-53.3,280-53.3,280c-72.4,14.7-183.8-14.8-183.8-14.8C736.5,2229.3,746.9,2054.5,758.7,2018.9z" style="fill: rgb(16, 102, 94);"/>
    <linearGradient id="SVGID_28_" gradientUnits="userSpaceOnUse" x1="112.4502" y1="1838.1604" x2="130.1931" y2="1708.3579" gradientTransform="matrix(-1 0 0 1 1002.0518 0)">
      <stop offset="0" style="stop-color:#FEBBBA"/>
      <stop offset="1" style="stop-color:#FF928E"/>
    </linearGradient>
    <path class="st48" d="M857,1618.6l-23.6,106.2c-2.3,9.4,6.3,7.8,15.7,6c15.5-2.9,35.4-8.9,42.1-21c0.7-1.2,1-2.6,1.2-4l10.2-73.6 c0.8-5.8-2.4-11.5-7.7-13.9l-19.6-8.7C867.6,1606.3,858.9,1610.6,857,1618.6z" style="fill: url(#SVGID_28_);"/>
    <linearGradient id="SVGID_29_" gradientUnits="userSpaceOnUse" x1="67.6665" y1="1670.8055" x2="222.4742" y2="1395.2999" gradientTransform="matrix(-1 0 0 1 1002.0518 0)">
      <stop offset="0" style="stop-color:#FEBBBA"/>
      <stop offset="1" style="stop-color:#FF928E"/>
    </linearGradient>
    <path class="st49" d="M884.7,1517.5c0,0,28,11.8,47,52.3c19,40.5,4.8,59.1-13,61.7c-17.9,2.6-44.6,2.2-72.8-24 C817.6,1581.4,848.3,1503.5,884.7,1517.5z" style="fill: url(#SVGID_29_);"/>
    <path class="st50" d="M864.9,1585.9c0,0-21.1-59.2,31.4-59.9l12.4,8.6c0,0,19.3-32.8-12.4-48.5c-31.6-15.7-68.6-2.7-82,39.9 c-13.5,42.6-15.7,71.1,6.6,91.5c22.4,20.4,31.6-2.7,31.6-2.7s-12.2-19.1-7.2-29.3c5-10.2,16.4,2.1,16.4,2.1L864.9,1585.9z" style="fill: rgb(11, 119, 108);"/>
    <linearGradient id="SVGID_30_" gradientUnits="userSpaceOnUse" x1="100.6188" y1="1689.3224" x2="255.4269" y2="1413.8159" gradientTransform="matrix(-1 0 0 1 1002.0518 0)">
      <stop offset="0" style="stop-color:#FEBBBA"/>
      <stop offset="1" style="stop-color:#FF928E"/>
    </linearGradient>
    <path class="st51" d="M859,1592.5c0,0-10.7-30.5-24.9-18.4c-14.2,12.1,11.6,28.2,21.7,33.4L859,1592.5z" style="fill: url(#SVGID_30_);"/>
    <linearGradient id="SVGID_31_" gradientUnits="userSpaceOnUse" x1="6605.0098" y1="4313.9053" x2="6829.8022" y2="4313.9053" gradientTransform="matrix(0.447 0.8946 0.8946 -0.447 -5885.6611 -2292.5178)">
      <stop offset="0" style="stop-color:#FEBBBA"/>
      <stop offset="1" style="stop-color:#FF928E"/>
    </linearGradient>
    <path class="st52" d="M765.6,1797.8c0,0,216.3,264.1,377.8-36.6c0,0,3.1-7.7,1.2-18.8c-1-5.6,2.7-25.5,4.8-35.6 c0.7-3.3-1.7-6.3-5-6.7l0,0c-2.6-0.2-5.1,0.8-6.8,2.9l-29.5,37.6c-2.2,7.4,1.3,15.4,8.4,18.7l0,0c4.5,2.1,5.9,7.8,2.9,11.7 c-122.9,161.1-328.4-15.7-332.2-13.6C773.8,1764.7,758.4,1772.9,765.6,1797.8z" style="fill: url(#SVGID_31_);"/>
    <circle class="st41" cx="2065.8" cy="1787" r="185.3" style="fill: rgb(22, 145, 130);"/>
    <g>
      <path class="st3" d="M2005.7,1833.2l-78.2-39.8v-12.8l78.2-45.3v21.8l-54.1,28.9l54.1,25.5V1833.2z" style="fill: rgb(255, 255, 255);"/>
      <path class="st3" d="M2088.8,1717.7l-44.5,134.4l-22.3-0.2l44.1-133.8L2088.8,1717.7z" style="fill: rgb(255, 255, 255);"/>
      <path class="st3" d="M2105.4,1811.8l57.1-26.1l-57.1-29.2v-22.2l83.3,45.7v13.4l-83.3,40.5V1811.8z" style="fill: rgb(255, 255, 255);"/>
    </g>
    <g>
      <linearGradient id="SVGID_32_" gradientUnits="userSpaceOnUse" x1="2481.2842" y1="1283.5801" x2="1951.7856" y2="2680.1304">
        <stop offset="0" style="stop-color:#FF928E"/>
        <stop offset="1" style="stop-color:#FE7062"/>
      </linearGradient>
      <circle class="st53" cx="2399.5" cy="1499.4" r="185.3" style="fill: url(#SVGID_32_);"/>
      <path class="st3" d="M2339.5,1426.7v156.1c0,10,8.5,16.3,15.8,11.7l130.7-82.1c8.2-5.1,8.2-19.6,0-24.2l-130.7-74.1 C2348,1409.9,2339.5,1416.7,2339.5,1426.7z" style="fill: rgb(255, 255, 255);"/>
    </g>
    <ellipse transform="matrix(0.7071 -0.7071 0.7071 0.7071 -376.6567 2479.4312)" class="st41" cx="2804.6" cy="1694.4" rx="185.3" ry="185.3" style="fill: rgb(22, 145, 130);"/>
    <g>
      <rect x="2695.8" y="1688.9" class="st3" width="45.5" height="83.1" style="fill: rgb(255, 255, 255);"/>
      <rect x="2769.5" y="1640.9" class="st3" width="45.5" height="131.2" style="fill: rgb(255, 255, 255);"/>
      <rect x="2844.8" y="1598.7" class="st3" width="45.5" height="173.3" style="fill: rgb(255, 255, 255);"/>
    </g>
  </g>
</svg>